<?xml version="1.0" encoding="UTF-8" standalone="no"?>
<!DOCTYPE svg  PUBLIC '-//W3C//DTD SVG 1.1//EN'  'http://www.w3.org/Graphics/SVG/1.1/DTD/svg11.dtd'>
<svg xmlns="http://www.w3.org/2000/svg" xmlns:xlink="http://www.w3.org/1999/xlink" version="1.1">
<defs>
<font id="JosefinSlab-SemiBold" horiz-adv-x="542">
<font-face underline-position="-150" font-weight="600" descent="-200" panose-1="2 0 0 0 0 0 0 0 0 0" units-per-em="1000" unicode-range="U+0020-203A" bbox="-40 -250 1156 932" x-height="375" underline-thickness="50" font-family="JosefinSlab" ascent="800" cap-height="700"/>
<missing-glyph horiz-adv-x="300"/>
<glyph glyph-name=".notdef" horiz-adv-x="300"/>
<glyph glyph-name=".null" horiz-adv-x="0"/>
<glyph glyph-name="nonmarkingreturn" horiz-adv-x="300"/>
<glyph glyph-name="space" horiz-adv-x="300" unicode=" "/>
<glyph glyph-name="space" horiz-adv-x="300" unicode=" "/>
<glyph glyph-name="exclam" horiz-adv-x="201" unicode="!" d="M68 750h63v-584h-63v584zM100 11q-16 0 -29 12t-13 31t13 30.5t29 11.5t29 -11.5t13 -30.5t-13 -31t-29 -12z"/>
<glyph glyph-name="quotedbl" horiz-adv-x="322" unicode='&quot;' d="M63 472v248h63q-1 -63 -2 -124t-2 -124h-59zM196 472v248h63q-1 -63 -2 -124t-2 -124h-59z"/>
<glyph glyph-name="numbersign" horiz-adv-x="571" unicode="#" d="M286 0q6 51 12 99.5t12 99.5h-121q-6 -51 -12 -99.5t-12 -99.5h-63q6 51 12 99.5t12 99.5h-100q2 15 3.5 30.5t3.5 30.5h100q4 31 7.5 61t7.5 61h-99q2 15 3 30t3 31h100q6 51 12 100t12 100h63q-6 -51 -12 -100t-12 -100h121q6 51 12 100t12 100h63q-6 -51 -12 -100 t-12 -100h112q-2 -16 -3 -31t-3 -30h-113q-4 -31 -7.5 -61t-7.5 -61h112q-2 -15 -3.5 -30.5t-3.5 -30.5h-112q-6 -51 -12 -99.5t-12 -99.5h-63zM211 382q-4 -31 -7.5 -61t-7.5 -61h121q4 31 7.5 61t7.5 61h-121z"/>
<glyph glyph-name="dollar" horiz-adv-x="567" unicode="$" d="M116 519q0 -23 7 -39.5t19.5 -28.5t29 -21t35.5 -16v224q-46 -9 -68.5 -43t-22.5 -76zM394 186q0 34 -10 57.5t-27.5 40t-40 27.5t-46.5 19v-276q25 4 47.5 14.5t39.5 27t27 39.5t10 51zM353 546v73q-15 9 -36 15.5t-47 8.5v-250q33 -11 66.5 -24.5t59.5 -36t43 -57.5 t17 -88q0 -42 -14 -76t-39.5 -59t-59.5 -40.5t-73 -18.5v-61h-63v63q-65 7 -111.5 34t-67.5 55v111h60v-89q22 -19 51.5 -33t67.5 -19v296q-29 9 -56.5 21t-48.5 30.5t-34 46t-14 69.5v7q0 27 7.5 55t25.5 54t48 44t72 24v63h63v-61q32 -3 70 -14t73 -40v-103h-60z"/>
<glyph glyph-name="percent" horiz-adv-x="726" unicode="%" d="M184 0q75 126 149 250t149 250h69q-75 -126 -149 -250t-149 -250h-69zM218 267q-25 0 -47.5 9.5t-39 26t-26.5 38.5t-10 48q0 25 10 47t26.5 38.5t39 26t47.5 9.5t47 -9.5t39 -26t27 -38.5t10 -47q0 -26 -10 -48t-27 -38.5t-39 -26t-47 -9.5zM158 389q0 -26 17 -43.5 t43 -17.5t43 17.5t17 43.5q0 25 -17 42.5t-43 17.5t-43 -17.5t-17 -42.5zM522 -10q-25 0 -47.5 9.5t-39 26t-26.5 38.5t-10 48q0 25 10 47t26.5 38t39 25.5t47.5 10.5q25 -1 47 -10.5t39 -25.5t27 -38t10 -47q0 -26 -10 -48t-27 -38.5t-39 -26t-47 -9.5zM462 111 q0 -26 17 -43t43 -17t43 17t17 43t-17 43t-43 17t-43 -17t-17 -43z"/>
<glyph glyph-name="ampersand" horiz-adv-x="700" unicode="&amp;" d="M168 188q0 -29 10 -53.5t28 -43t43 -29t54 -10.5q42 0 73 20t48 52l-121 198q-60 -2 -97.5 -38.5t-37.5 -95.5zM440 375h161v-61h-98v-54v-63.5t-13 -69.5l71 -114l-49 -32l-52 85q-28 -35 -68.5 -54.5t-88.5 -19.5q-41 0 -77 15.5t-63 42t-42.5 62t-15.5 76.5 q0 36 12.5 68t34 57.5t51 43t64.5 23.5l-71 116q-18 30 -24 55t-6 43q0 13 4 35t22 49.5t51 47.5q28 17 48.5 19.5t31.5 2.5q18 0 40.5 -4.5t47 -15.5t43.5 -23l-25 -49q-14 8 -32 16.5t-34.5 12.5t-31.5 4q-5 0 -17 -1t-29 -12q-48 -30 -51 -56t-3 -33q0 -38 22 -75 l179 -292q8 14 8 29v126z"/>
<glyph glyph-name="quotesingle" horiz-adv-x="158" unicode="&apos;" d="M49 472v248h65q-1 -63 -2 -124t-2 -124h-61z"/>
<glyph glyph-name="parenleft" horiz-adv-x="415" unicode="(" d="M125 291q0 75 14 143t37 126t52.5 105.5t61.5 80.5q13 -6 25.5 -11.5t26.5 -11.5q-29 -33 -56.5 -78t-49.5 -100t-35 -119t-13 -135t13 -135t35 -119t49.5 -100t56.5 -78q-14 -6 -26.5 -11.5t-25.5 -11.5q-32 33 -61.5 80.5t-52.5 105.5t-37 126t-14 143z"/>
<glyph glyph-name="parenright" horiz-adv-x="400" unicode=")" d="M302 291q0 -75 -14 -143t-37 -126t-53 -105.5t-61 -80.5q-13 5 -26 10.5t-26 11.5q29 33 56.5 78t49.5 100t35 119t13 135t-13 135t-35 119t-49.5 100t-56.5 78l26 12l26 12q31 -33 61 -80.5t53 -105.5t37 -126t14 -143z"/>
<glyph glyph-name="asterisk" horiz-adv-x="335" unicode="*" d="M230 575l38 -22t39 -22l-16 -28l-16 -28q-20 11 -38.5 23t-38.5 23q0 -22 -0.5 -43.5t-0.5 -43.5h-60v87q-19 -11 -38 -21.5t-38 -21.5q-16 29 -32 55q20 11 38.5 21.5t38.5 21.5q-19 11 -38 23t-38 23q8 13 15 25.5t14 26.5q20 -11 39 -23t39 -23v92h64q0 -23 -0.5 -46 t-0.5 -46q20 11 39.5 22.5t39.5 22.5q8 -14 15 -26.5t15 -25.5q-20 -11 -39.5 -23t-39.5 -23z"/>
<glyph glyph-name="plus" horiz-adv-x="543" unicode="+" d="M234 51v149h-148v61h148v150h63v-150h149v-61h-149v-149h-63z"/>
<glyph glyph-name="comma" horiz-adv-x="200" unicode="," d="M152 86q-22 -52 -43 -103t-43 -103h-56q19 52 37.5 103t38.5 103h66z"/>
<glyph glyph-name="hyphen" horiz-adv-x="300" unicode="-" d="M53 158v61h184v-61h-184z"/>
<glyph glyph-name="period" horiz-adv-x="163" unicode="." d="M43 42q0 19 13 31t29 12t29 -12t13 -31t-13 -30.5t-29 -11.5t-29 11.5t-13 30.5z"/>
<glyph glyph-name="slash" horiz-adv-x="363" unicode="/" d="M17 -19q70 190 139 377.5t139 377.5h63q-70 -190 -139 -377.5t-139 -377.5h-63z"/>
<glyph glyph-name="zero" horiz-adv-x="616" unicode="0" d="M100 327q0 -59 16 -109t44 -86.5t65 -57.5t78 -21q40 0 77.5 20t66 56t46 86t17.5 109q0 47 -12 95.5t-37.5 88t-63.5 64.5t-90 25t-91 -24t-64.5 -63t-38.5 -87.5t-13 -95.5zM37 327q0 68 19 128.5t54.5 105.5t85 71t111.5 26t111.5 -27t84 -73t52.5 -106.5t18 -128.5 q0 -74 -23 -135t-60.5 -104.5t-86.5 -67.5t-101 -24t-100 25t-85 69t-58.5 105.5t-21.5 135.5z"/>
<glyph glyph-name="one" horiz-adv-x="278" unicode="1" d="M36 59h79v530h-81v61h144v-591h80v-59h-222v59z"/>
<glyph glyph-name="two" horiz-adv-x="512" unicode="2" d="M204 61h218v99h60v-160h-429q63 62 121.5 121t104 114.5t73 107.5t27.5 99q0 43 -13 72.5t-33 48t-43.5 26.5t-44.5 8q-41 0 -67.5 -14.5t-41.5 -35.5t-21 -45t-6 -43q0 -65 39 -107l-38 -38q-15 11 -27 28t-20 36.5t-12.5 40.5t-4.5 40q0 40 13 76t38 63.5t62.5 43.5 t85.5 16q44 0 80.5 -16t62.5 -44t40 -65t14 -79q0 -52 -21 -102t-54.5 -99t-76.5 -96.5t-86 -95.5z"/>
<glyph glyph-name="three" horiz-adv-x="515" unicode="3" d="M161 336l161 252h-160v-53h-59v115h326l-160 -242q36 -8 67.5 -26t54.5 -44.5t36 -60t13 -72.5q0 -44 -17 -82.5t-46 -67.5t-68 -46t-83 -17q-47 0 -87.5 18.5t-69.5 50.5l46 44q20 -23 48 -37.5t62 -14.5q31 0 59 12t49 33t33 48.5t12 58.5t-12 58.5t-33 47.5t-49 32 t-59 12q-34 0 -64 -19z"/>
<glyph glyph-name="four" horiz-adv-x="522" unicode="4" d="M340 474l-176 -230h176v230zM264 59h76v124h-303l366 475v-414h97v-61h-97v-124h83v-59h-222v59z"/>
<glyph glyph-name="five" horiz-adv-x="543" unicode="5" d="M430 650v-115h-60v54h-164v-182q24 8 48 8q43 0 82 -16.5t68.5 -45t46.5 -66.5t17 -82t-17 -82.5t-46.5 -67.5t-68.5 -46t-82 -17t-80.5 15.5t-66.5 43.5l46 43q39 -41 100 -41q31 0 59 12t49 33t33 48.5t12 58.5t-12 58t-33 47t-49 32t-59 12q-35 0 -64 -11.5t-46 -35.5 v343h287z"/>
<glyph glyph-name="six" horiz-adv-x="520" unicode="6" d="M49 196q0 72 30.5 134.5t78.5 116.5t107 101t115 88q10 -12 19.5 -24.5t19.5 -24.5q-85 -57 -138.5 -107.5t-82.5 -89.5q12 11 28.5 18t35.5 7q44 0 83 -16.5t68 -45t46 -67t17 -82.5t-17 -82.5t-46 -67t-68 -45.5t-83 -17q-43 0 -81.5 16t-67 43.5t-46 65t-18.5 79.5z M113 204q0 -31 11.5 -58.5t31.5 -48t47 -32.5t58 -12t59 12t49 32.5t33 48t12 58.5t-12 58.5t-33 47.5t-49 32t-59 12t-58 -12t-47 -32t-31.5 -47.5t-11.5 -58.5z"/>
<glyph glyph-name="seven" horiz-adv-x="469" unicode="7" d="M423 650l-292 -650h-72l266 588h-252v-53h-59v115h409z"/>
<glyph glyph-name="eight" horiz-adv-x="510" unicode="8" d="M41 205q0 62 32.5 111t84.5 74q-27 19 -43 48.5t-16 65.5q0 32 12 60t33 49t49 33t60 12t60 -12.5t49 -33.5t33.5 -49t12.5 -60q0 -35 -16 -64.5t-43 -48.5q53 -25 86 -74t33 -111q0 -44 -17 -82.5t-46.5 -67.5t-68.5 -46t-82 -17q-44 0 -82.5 17t-67.5 46t-46 67.5 t-17 82.5zM105 205q0 -31 11.5 -58.5t31.5 -48.5t47 -33t58 -12t59 12t49 33t33 48.5t12 58.5q0 30 -12 57t-32 47t-47.5 32t-58.5 13q-32 0 -59.5 -12t-48 -32t-32 -47t-11.5 -58zM163 502q0 -18 7 -34t19.5 -27.5t29.5 -18t36 -6.5q39 0 65 24.5t26 61.5q0 19 -7 36.5 t-19 30.5t-29 20.5t-36 7.5t-36 -7.5t-29.5 -20.5t-19.5 -30.5t-7 -36.5z"/>
<glyph glyph-name="nine" horiz-adv-x="525" unicode="9" d="M462 423q0 -70 -31.5 -131.5t-80 -115t-107 -100t-112.5 -85.5q-10 12 -20 24.5t-19 24.5q85 57 138.5 107t82.5 90q-25 -25 -64 -25q-44 0 -83 16.5t-68 45t-46 67t-17 82.5q0 43 17 82t46 67.5t68 45.5t83 17t82.5 -17t67.5 -45.5t46 -67.5t17 -82zM398 423 q0 31 -11.5 58.5t-32 48t-47.5 32.5t-58 12t-58.5 -12t-48.5 -32.5t-33 -48t-12 -58.5t12 -58.5t33 -47.5t48.5 -32t58.5 -12t58 12t47.5 32t32 47.5t11.5 58.5z"/>
<glyph glyph-name="colon" horiz-adv-x="175" unicode=":" d="M43 42q0 19 12.5 31t29.5 12q16 0 29 -12t13 -31t-13 -30.5t-29 -11.5q-17 0 -29.5 11.5t-12.5 30.5zM43 292q0 19 12.5 31t29.5 12q16 0 29 -12t13 -31t-13 -30.5t-29 -11.5q-17 0 -29.5 11.5t-12.5 30.5z"/>
<glyph glyph-name="semicolon" horiz-adv-x="201" unicode=";" d="M138 86q-22 -52 -43 -103t-43 -103h-57q20 52 38.5 103t38.5 103h66zM71 292q0 19 13 31t30 12q15 0 28 -12t13 -31t-13 -30.5t-28 -11.5q-17 0 -30 11.5t-13 30.5z"/>
<glyph glyph-name="less" horiz-adv-x="680" unicode="&lt;" d="M553 70v-84q-110 63 -218.5 126t-218.5 126q110 63 218.5 126t218.5 126v-84l-146 -84l-146 -84l146 -84z"/>
<glyph glyph-name="equal" horiz-adv-x="708" unicode="=" d="M606 378v-61h-506v61h506zM606 184v-61h-506v61h506z"/>
<glyph glyph-name="greater" horiz-adv-x="650" unicode="&gt;" d="M116 -14v84l146 84l146 84l-146 84l-146 84v84q110 -63 218.5 -126t218.5 -126q-110 -63 -218.5 -126t-218.5 -126z"/>
<glyph glyph-name="question" horiz-adv-x="452" unicode="?" d="M207 8q-16 0 -29 11.5t-13 30.5q0 18 13 30.5t29 12.5t29 -12.5t13 -30.5q0 -19 -13 -30.5t-29 -11.5zM93 565q-14 5 -27.5 10t-27.5 10q8 24 22.5 50t37.5 47.5t56.5 35.5t78.5 14q41 0 77 -15.5t62.5 -42t41.5 -62t15 -75.5q0 -55 -26.5 -96.5t-71.5 -74.5 q-15 -12 -31.5 -22t-30 -23t-22 -32t-8.5 -47v-78h-63v97q0 31 10.5 51t28 35t39.5 28.5t45 33.5q35 27 51 59t16 69q0 29 -10 53.5t-27.5 42.5t-42 28t-53.5 10q-57 0 -90.5 -27.5t-49.5 -78.5z"/>
<glyph glyph-name="at" horiz-adv-x="990" unicode="@" d="M902 188q-3 -54 -21 -90.5t-43.5 -58t-54.5 -30.5t-56 -9h-97v30v33q-4 -10 -16 -22.5t-30.5 -23t-43 -18t-54.5 -7.5q-42 0 -78 15.5t-62.5 42t-42 62t-15.5 75.5t15.5 75.5t42 62t62.5 42t78 15.5q27 0 51.5 -8t43.5 -19t31.5 -24t17.5 -23q0 16 1.5 33t2.5 34h51v-314 h44q22 0 41.5 7t34.5 22t24 39t10 59q0 73 -27.5 137.5t-75 112.5t-111.5 76t-136 28q-73 0 -137 -28t-112 -76t-75.5 -112.5t-27.5 -137.5t27.5 -137t75.5 -112t112 -75.5t137 -27.5q60 0 113.5 18t98.5 50q10 -12 19 -23t19 -22q-50 -41 -117 -62.5t-133 -21.5 q-86 0 -161.5 32.5t-132 88.5t-89 131.5t-32.5 161.5t32.5 161t89 131t132 88.5t161.5 32.5t161 -32.5t131 -88.5t88.5 -131.5t32.5 -161.5zM351 188q0 -29 10 -53.5t28 -42.5t43 -28.5t54 -10.5q30 0 55 10.5t43 28.5t28.5 42.5t10.5 53.5q0 28 -10.5 53t-28.5 43t-43 28.5 t-55 10.5q-29 0 -54 -10.5t-43 -28.5t-28 -43t-10 -53z"/>
<glyph glyph-name="A" horiz-adv-x="800" unicode="A" d="M409 563l-10 31q-1 -2 -2 -7t-3 -10l-4 -14q-5 -13 -15.5 -37.5t-23 -54.5t-26 -62.5t-25.5 -60.5h200zM35 59h80q71 170 142 336.5t143 336.5q72 -170 142.5 -336.5t142.5 -336.5h80v-59h-208v59h65q-25 58 -48.5 115t-48.5 115h-250q-25 -58 -49 -115t-49 -115h66v-59 h-208v59z"/>
<glyph glyph-name="B" horiz-adv-x="534" unicode="B" d="M150 640v-258h120q65 0 103 37.5t38 97.5q0 66 -40 94.5t-104 28.5h-117zM150 322v-263h122q34 0 64 8t52.5 24t35.5 40.5t13 56.5q0 35 -15 60.5t-40.5 42t-58 24t-66.5 7.5h-107zM35 59h53v581h-53v60h224q48 0 87.5 -10t68 -31t44 -54.5t15.5 -79.5q0 -62 -30 -109 t-92 -64q29 -6 55.5 -20t47 -36t32.5 -51t12 -65q0 -45 -18.5 -78.5t-49.5 -56t-71 -34t-83 -11.5h-242v59z"/>
<glyph glyph-name="C" horiz-adv-x="610" unicode="C" d="M515 546v74q-58 28 -123 28q-61 0 -114.5 -23.5t-93.5 -64.5t-63.5 -95.5t-23.5 -115.5q0 -62 23 -116t63 -94.5t93.5 -64t114.5 -23.5q41 0 78 10.5t71 30.5l34 -50q-40 -23 -85.5 -36.5t-96.5 -13.5q-74 0 -139 28t-113.5 76.5t-76.5 113.5t-28 139t28 139.5t76.5 114 t113.5 77t139 28.5q51 0 96.5 -13t86.5 -37v-112h-60z"/>
<glyph glyph-name="D" horiz-adv-x="632" unicode="D" d="M152 640v-580h78q71 0 127.5 23t96 62t60.5 92t21 113q0 66 -23 120t-63 91.5t-94 58t-115 20.5h-88zM35 60h55v580h-55v60h210q72 0 136 -24.5t112 -70.5t76 -110.5t28 -145.5q0 -59 -20.5 -121t-66.5 -112.5t-119.5 -83t-179.5 -32.5h-176v60z"/>
<glyph glyph-name="E" horiz-adv-x="571" unicode="E" d="M35 59h64v581h-64v60h487v-154h-60v94h-301v-258h322v-59h-322v-264h315v95h60v-154h-501v59z"/>
<glyph glyph-name="F" horiz-adv-x="557" unicode="F" d="M35 59h64v581h-64v60h487v-154h-60v94h-301v-258h322v-59h-322v-264h96v-59h-222v59z"/>
<glyph glyph-name="G" horiz-adv-x="609" unicode="G" d="M574 298v-258q-40 -23 -85.5 -36.5t-96.5 -13.5q-74 0 -139 28t-113.5 76.5t-76.5 113.5t-28 139t28 139.5t76.5 114t113.5 77t139 28.5q51 0 96.5 -13t86.5 -37l-35 -51q-67 41 -148 41q-61 0 -114.5 -23.5t-93.5 -64.5t-63.5 -95.5t-23.5 -115.5q0 -62 23 -116 t63 -94.5t93.5 -64t114.5 -23.5q65 0 121 27v162h-124v60h186z"/>
<glyph glyph-name="H" horiz-adv-x="755" unicode="H" d="M499 700h221v-60h-78v-581h78v-59h-221v59h80v264h-403v-264h81v-59h-222v59h78v581h-78v60h222v-60h-81v-258h403v258h-80v60z"/>
<glyph glyph-name="I" horiz-adv-x="292" unicode="I" d="M35 59h78v581h-78v60h222v-60h-81v-581h81v-59h-222v59z"/>
<glyph glyph-name="J" horiz-adv-x="294" unicode="J" d="M35 700h224v-610q0 -56 -17.5 -99t-47.5 -72t-71 -45t-88 -17v59q35 2 65 14.5t51.5 35t33.5 54.5t12 73v547h-162v60z"/>
<glyph glyph-name="K" horiz-adv-x="686" unicode="K" d="M443 59h57q-63 80 -125.5 159.5t-125.5 159.5l-75 -70v-249h83v-59h-222v59h77v581h-77v60h208v-60h-69v-234q0 -8 -0.5 -15.5t-1.5 -15.5l18 22l255 243h-45v60h208v-60h-85l-233 -222q72 -90 142 -179t142 -180h77v-59h-208v59z"/>
<glyph glyph-name="L" horiz-adv-x="569" unicode="L" d="M35 59h62v581h-62v60h208v-60h-83v-581h315v95h59v-154h-499v59z"/>
<glyph glyph-name="M" horiz-adv-x="971" unicode="M" d="M827 700h108v-60h-84v-581h85v-59h-221v59h74v463q0 6 0.5 18.5t1.5 17.5q-5 -8 -11.5 -17t-13.5 -18q-26 -36 -60.5 -81.5t-72.5 -94t-76 -98t-72 -93.5q-56 73 -97.5 127t-71 92.5t-49 64.5t-33 43.5t-23 29.5t-17.5 23l-15 22q1 -9 1.5 -17.5t0.5 -18.5v-463h76v-59 h-222v59h84v581h-84v60h108q30 -39 71 -92.5t87 -113t93.5 -121.5t90.5 -117q86 111 171 222t171 222z"/>
<glyph glyph-name="N" horiz-adv-x="850" unicode="N" d="M35 59h84v581h-84v60h112l505 -568l19 -26l-3 32v502h-74v60h221v-60h-85v-672l-533 591l-18 25l2 -31v-494h76v-59h-222v59z"/>
<glyph glyph-name="O" horiz-adv-x="786" unicode="O" d="M97 349q0 -62 23 -116t63 -94.5t94 -64t115 -23.5t115 23.5t94.5 64t64 94.5t23.5 116q0 61 -23.5 115.5t-64 95.5t-94 64.5t-114.5 23.5t-115 -23.5t-94 -64.5t-63.5 -95.5t-23.5 -115.5zM35 349q0 74 28 139.5t76.5 114t113.5 77t139 28.5t139.5 -28.5t114 -77t77 -114 t28.5 -139.5t-28.5 -139t-77 -113.5t-114 -76.5t-139.5 -28t-139 28t-113.5 76.5t-76.5 113.5t-28 139z"/>
<glyph glyph-name="P" horiz-adv-x="506" unicode="P" d="M150 381h95q48 0 80 12.5t50.5 32t26 43t7.5 45.5q0 25 -12.5 48t-34 40t-51.5 27.5t-65 10.5h-96v-259zM35 59h53v581h-53v60h210q33 0 72 -10.5t73.5 -33t57.5 -57.5t23 -85q0 -88 -54 -140.5t-157 -52.5h-110v-262h107v-59h-222v59z"/>
<glyph glyph-name="Q" horiz-adv-x="808" unicode="Q" d="M35 349q0 74 28 139.5t76.5 114t113.5 77t139 28.5t139.5 -28.5t114 -77t77 -114t28.5 -139.5q0 -92 -43.5 -168t-114.5 -122h180v-59h-307q-38 -8 -74 -8q-74 0 -139 28t-113.5 76.5t-76.5 113.5t-28 139zM97 349q0 -62 23 -116t63 -94.5t93.5 -64t114.5 -23.5 t115.5 23.5t95 64t64 94.5t23.5 116q0 61 -23.5 115.5t-64 95.5t-94.5 64.5t-115 23.5t-114.5 -23.5t-93.5 -64.5t-63.5 -95.5t-23.5 -115.5z"/>
<glyph glyph-name="R" horiz-adv-x="574" unicode="R" d="M150 381h95q48 0 80 12.5t50.5 32t26 43t7.5 45.5q0 25 -12.5 48t-34 40t-51.5 27.5t-65 10.5h-96v-259zM35 59h53v581h-53v60h210q33 0 72 -10.5t73.5 -33t57.5 -57.5t23 -85q0 -74 -38 -123t-110 -65l125 -267h91v-59h-130l-152 322q-11 -1 -22 -1h-22h-63v-262h107 v-59h-222v59z"/>
<glyph glyph-name="S" horiz-adv-x="478" unicode="S" d="M28 84v111h60v-89q27 -23 65 -39t88 -16q30 0 57.5 9t48.5 26t34 42.5t13 57.5q0 55 -24.5 85t-62 46.5t-81 27.5t-81.5 29.5t-63.5 50.5t-27.5 92v6q0 30 9 62t31.5 58.5t59 43.5t89.5 17q35 0 80 -9.5t90 -45.5v-103h-60v73q-19 11 -47 18t-63 7q-32 0 -56 -10.5 t-39.5 -27.5t-23.5 -39.5t-8 -47.5q0 -44 25 -67t62.5 -37.5t81.5 -26.5t82 -34.5t63.5 -61t25.5 -105.5q0 -45 -16.5 -81t-45 -61.5t-66.5 -39t-81 -13.5q-39 0 -73 8t-62.5 21.5t-50 29.5t-33.5 33z"/>
<glyph glyph-name="T" horiz-adv-x="623" unicode="T" d="M197 59h84v581h-187v-94h-59v154h553v-154h-60v94h-185v-581h76v-59h-222v59z"/>
<glyph glyph-name="U" horiz-adv-x="712" unicode="U" d="M35 700h222v-60h-83v-411q0 -43 13.5 -76t37.5 -55.5t57.5 -34.5t73.5 -12q39 0 72.5 12t58 34.5t38 55.5t13.5 76v411h-82v60h221v-60h-77v-414q0 -57 -18.5 -101t-51.5 -73.5t-77.5 -44.5t-96.5 -15q-53 0 -97.5 15t-77 44.5t-51 73.5t-18.5 101v414h-77v60z"/>
<glyph glyph-name="V" horiz-adv-x="820" unicode="V" d="M35 700h222v-60h-74q54 -126 107 -251.5t107 -251.5l9 -31l9 31q54 126 106.5 251t106.5 252h-64v60h221v-60h-94l-285 -672q-72 169 -143 336t-143 336h-85v60z"/>
<glyph glyph-name="W" horiz-adv-x="1191" unicode="W" d="M35 700h222v-60h-74q54 -126 107 -251.5t107 -251.5l9 -31q29 96 72.5 189.5t82.5 186.5q-17 39 -34 78.5t-34 79.5h-88v60h222v-60h-71q54 -126 106.5 -251.5t107.5 -251.5l9 -31l9 31q54 126 106.5 251t105.5 252h-66v60h222v-60h-92q-72 -169 -143 -336t-142 -336 l-177 417l-10 31q-17 -56 -39.5 -112.5t-47.5 -113t-50.5 -112.5t-48.5 -110q-72 169 -143 336t-143 336h-85v60z"/>
<glyph glyph-name="X" horiz-adv-x="699" unicode="X" d="M35 700h222v-60h-57q35 -54 69.5 -106t68.5 -105l12 -23l11 23l137 211h-56v60h222v-60h-90l-186 -288q48 -74 96 -146.5t96 -146.5h84v-59h-222v59h60l-134 205q-6 10 -11 20.5t-12 20.5l-11 -24q-36 -56 -72 -111t-71 -111h66v-59h-222v59h79l194 299l-184 282h-89v60z "/>
<glyph glyph-name="Y" horiz-adv-x="768" unicode="Y" d="M276 59h70v209q-56 93 -111 185.5t-111 186.5h-89v60h222v-60h-57q44 -72 86.5 -143.5t85.5 -143.5l11 -29h1l12 29l170 287h-55v60h222v-60h-90q-56 -94 -111 -186.5t-110 -186.5v-208h75v-59h-221v59z"/>
<glyph glyph-name="Z" horiz-adv-x="629" unicode="Z" d="M594 222v-222h-559v60l453 580h-437v95h63v-35h451v-60l-453 -580h422v162h60z"/>
<glyph glyph-name="bracketleft" horiz-adv-x="338" unicode="[" d="M83 -149v895h183v-61h-120v-773h120v-61h-183z"/>
<glyph glyph-name="backslash" horiz-adv-x="365" unicode="\" d="M75 736q70 -190 139 -377.5t139 -377.5h-70q-70 190 -139 377.5t-139 377.5h70z"/>
<glyph glyph-name="bracketright" horiz-adv-x="342" unicode="]" d="M251 746v-895h-183v61h120v773h-120v61h183z"/>
<glyph glyph-name="asciicircum" horiz-adv-x="470" unicode="^" d="M232 660q30 -45 60 -90.5t60 -90.5h-46q-19 24 -37.5 48t-36.5 49q-19 -25 -37 -49t-37 -48h-46q30 45 60 90.5t60 90.5z"/>
<glyph glyph-name="underscore" horiz-adv-x="600" unicode="_" d="M500 0h-400v61h400v-61z"/>
<glyph glyph-name="grave" horiz-adv-x="200" unicode="`" d="M24 612q23 -33 45 -66.5t45 -66.5h-46q-27 33 -54 66.5t-54 66.5h64z"/>
<glyph glyph-name="a" d="M98 188q0 -29 10.5 -53.5t28.5 -42.5t43 -28.5t54 -10.5t54 10.5t43 28.5t28.5 42.5t10.5 53.5q0 28 -10.5 53t-28.5 43t-43 28.5t-54 10.5t-54 -10.5t-43 -28.5t-28.5 -43t-10.5 -53zM35 187q0 40 15.5 75.5t42 62.5t63 43t78.5 16q28 0 52.5 -8t43.5 -20t31.5 -25 t15.5 -23q0 16 1.5 33t2.5 34h51v-316h75v-59h-130v30v33q-4 -10 -15.5 -22t-30 -23t-43 -18.5t-54.5 -7.5q-42 0 -78.5 15.5t-63 42t-42 62t-15.5 75.5z" unicode="a"/>
<glyph glyph-name="b" d="M444 188q0 28 -10 53t-28 43t-43 28.5t-54 10.5q-30 0 -55 -10.5t-43 -28.5t-28.5 -43t-10.5 -53q0 -29 10.5 -53.5t28.5 -42.5t43 -28.5t55 -10.5q29 0 54 10.5t43 28.5t28 42.5t10 53.5zM35 59h75v631h-68v60h130v-400q-2 -11 -3.5 -20.5t-3.5 -19.5q4 10 17 23 t32 24.5t43 19t52 7.5q42 0 78 -15.5t62.5 -42.5t42 -62.5t15.5 -75.5t-15.5 -75.5t-42 -62.5t-62.5 -42.5t-78 -15.5q-30 0 -54.5 7.5t-43 18.5t-30.5 23t-16 22v-33v-30h-130v59z" unicode="b"/>
<glyph glyph-name="c" horiz-adv-x="394" unicode="c" d="M358 35q-26 -20 -57.5 -31.5t-67.5 -11.5q-41 0 -77 15.5t-63 42t-42.5 62t-15.5 76.5q0 40 15.5 76t42.5 62.5t63 42t77 15.5q37 0 68.5 -11.5t57.5 -31.5v-108h-56v71q-33 19 -70 19q-29 0 -54 -10.5t-43 -28.5t-28.5 -43t-10.5 -53q0 -29 10.5 -53.5t28.5 -42.5 t43 -28.5t54 -10.5q26 0 47.5 7.5t39.5 21.5z"/>
<glyph glyph-name="d" d="M98 188q0 -29 10.5 -53.5t28.5 -42.5t43 -28.5t54 -10.5t54 10.5t43 28.5t28.5 42.5t10.5 53.5q0 28 -10.5 53t-28.5 43t-43 28.5t-54 10.5t-54 -10.5t-43 -28.5t-28.5 -43t-10.5 -53zM377 30v33q-4 -10 -15.5 -22t-30 -23t-43 -18.5t-54.5 -7.5q-42 0 -78.5 15.5 t-63 42.5t-42 62.5t-15.5 75.5t15.5 75.5t42 62.5t63 42.5t78.5 15.5q27 0 51 -7.5t43 -19t31.5 -24.5t17.5 -23q-2 14 -3.5 28t-3.5 29v323h-68v60h130v-691h75v-59h-130v30z" unicode="d"/>
<glyph glyph-name="e" horiz-adv-x="445" unicode="e" d="M407 230l-291 -111q17 -30 47.5 -48t69.5 -18q27 0 50.5 10t40.5 27q9 -11 18.5 -22.5t19.5 -22.5q-26 -25 -58.5 -39t-70.5 -14q-41 0 -77 15.5t-63 42t-42.5 62t-15.5 76.5q0 40 15.5 76t42.5 62.5t63 42t77 15.5q31 0 58.5 -11.5t50 -32t39.5 -49t26 -61.5zM233 323 q-31 0 -57 -12t-44 -32t-27 -46q-7 -20 -7 -41q0 -7 1 -14q57 22 114 43.5t114 43.5q-15 26 -39.5 42t-54.5 16z"/>
<glyph glyph-name="f" horiz-adv-x="319" unicode="f" d="M35 59h61v255h-61v61h60v142q0 56 17.5 99t47.5 72.5t71 45t88 17.5v-60q-34 -1 -63.5 -13.5t-51 -35t-34 -54.5t-12.5 -72v-141h121v-61h-121v-255h85v-59h-208v59z"/>
<glyph glyph-name="g" horiz-adv-x="543" unicode="g" d="M98 188q0 -29 10.5 -53.5t28.5 -42.5t43 -28.5t54 -10.5t54 10.5t43 28.5t28.5 42.5t10.5 53.5q0 28 -10.5 53t-28.5 43t-43 28.5t-54 10.5t-54 -10.5t-43 -28.5t-28.5 -43t-10.5 -53zM381 375h127v-60h-76v-362q0 -45 -15 -82t-41.5 -64t-62 -42t-75.5 -15 q-45 1 -86.5 18t-70.5 42l42 50q21 -20 51 -33t62 -13q28 0 52.5 11t42.5 30.5t28.5 46t10.5 58.5v70q2 8 3 16t3 16q-6 -11 -18.5 -23.5t-30.5 -22.5t-41.5 -16.5t-51.5 -6.5q-42 0 -78.5 15.5t-63 42t-42 61.5t-15.5 75t15.5 75.5t42 62.5t63 43t78.5 16q28 0 52.5 -8 t43.5 -20t31.5 -25t15.5 -23q0 16 1.5 33t2.5 34z"/>
<glyph glyph-name="h" horiz-adv-x="563" unicode="h" d="M320 59h78v188q-2 29 -21.5 51t-59.5 24q-29 0 -54.5 -10t-45.5 -27t-31.5 -40.5t-11.5 -51.5v-134h69v-59h-208v59h77v631h-75v60h137v-427l-3 -45q22 48 64.5 75.5t99.5 29.5q57 0 90 -31t35 -81v-212h68v-59h-208v59z"/>
<glyph glyph-name="i" horiz-adv-x="278" unicode="i" d="M98 514q0 18 13 30.5t30 12.5q16 0 28.5 -12.5t12.5 -30.5q0 -19 -12.5 -30.5t-28.5 -11.5q-17 0 -30 11.5t-13 30.5zM35 59h74v256h-74v60h136v-316h72v-59h-208v59z"/>
<glyph glyph-name="j" horiz-adv-x="198" unicode="j" d="M92 514q0 18 13 30.5t29 12.5t29 -12.5t13 -30.5q0 -19 -13 -30.5t-29 -11.5t-29 11.5t-13 30.5zM35 375h128v-377q0 -60 -19 -105t-54 -74l-43 46q25 23 39.5 56t14.5 78v316h-66v60z"/>
<glyph glyph-name="k" horiz-adv-x="515" unicode="k" d="M287 59h30q-23 30 -45 60t-43 60l-57 -53v-67h71v-59h-208v59h75v631h-68v60h130v-550l123 115h-49v60h193v-60h-67q-26 -25 -49.5 -47.5t-49.5 -47.5q29 -40 58.5 -80t58.5 -81h90v-59h-193v59z"/>
<glyph glyph-name="l" horiz-adv-x="278" unicode="l" d="M35 59h75v631h-68v60h130v-691h71v-59h-208v59z"/>
<glyph glyph-name="m" horiz-adv-x="849" unicode="m" d="M606 59h77v188q-2 29 -21.5 51t-59.5 24q-28 0 -53.5 -9.5t-45 -26.5t-31.5 -40.5t-12 -50.5v-136h68v-59h-207v59h77v188q-2 29 -21.5 51t-59.5 24q-29 0 -54.5 -10t-45.5 -27t-31.5 -40.5t-11.5 -51.5v-134h69v-59h-208v59h77v256h-69v60h122l1 -22q1 -21 2.5 -37.5 t2.5 -37.5q21 48 64 76t100 29q53 0 85.5 -27.5t38.5 -72.5q22 46 64 72.5t97 27.5q57 0 90.5 -31t35.5 -81v-212h68v-59h-208v59z"/>
<glyph glyph-name="n" horiz-adv-x="563" unicode="n" d="M320 59h78v188q-2 29 -21.5 51t-59.5 24q-29 0 -54.5 -10t-45.5 -27t-31.5 -40.5t-11.5 -51.5v-134h69v-59h-208v59h77v256h-69v60h122l1 -22q1 -21 2.5 -37.5t2.5 -37.5q20 48 64.5 76.5t99.5 28.5q57 0 90 -31t35 -81v-212h68v-59h-208v59z"/>
<glyph glyph-name="o" horiz-adv-x="468" unicode="o" d="M98 187q0 -28 10.5 -52.5t28.5 -42.5t42.5 -28.5t52.5 -10.5t53 10.5t43.5 28.5t29 42.5t10.5 52.5t-10.5 53t-29 43.5t-43.5 29t-53 10.5t-52.5 -10.5t-42.5 -29t-28.5 -43.5t-10.5 -53zM35 188q0 40 15.5 76t42.5 62.5t63 42t77 15.5q42 0 78.5 -15.5t63.5 -42 t42.5 -62.5t15.5 -76q0 -41 -15.5 -76.5t-42.5 -62t-63.5 -42t-78.5 -15.5q-41 0 -77 15.5t-63 42t-42.5 62t-15.5 76.5z"/>
<glyph glyph-name="p" horiz-adv-x="543" unicode="p" d="M445 188q0 28 -10 52.5t-28 42.5t-43 28.5t-55 10.5q-29 0 -54 -10.5t-43 -28.5t-28.5 -42.5t-10.5 -52.5q0 -29 10.5 -53.5t28.5 -43t43 -29t54 -10.5q30 0 55 10.5t43 29t28 43t10 53.5zM44 -191h67v506h-76v60h127q0 -17 1 -34t3 -34q4 10 16.5 23.5t31.5 25 t43.5 19.5t51.5 8q42 0 78.5 -15.5t63 -42t42 -62t15.5 -75.5q0 -41 -15.5 -76.5t-42 -62.5t-63 -42.5t-78.5 -15.5q-29 0 -52.5 7t-42 17.5t-30.5 22.5t-17 23q2 -8 3 -15t3 -14v-223h79v-59h-208v59z"/>
<glyph glyph-name="q" horiz-adv-x="545" unicode="q" d="M98 188q0 -29 10.5 -53.5t28.5 -43t43 -29t54 -10.5t54 10.5t43 29t28.5 43t10.5 53.5q0 28 -10.5 52.5t-28.5 42.5t-43 28.5t-54 10.5t-54 -10.5t-43 -28.5t-28.5 -42.5t-10.5 -52.5zM290 -191h80v223q1 7 2.5 14t3.5 15q-5 -11 -17.5 -23t-30.5 -22.5t-42 -17.5t-52 -7 q-42 0 -78.5 15.5t-63 42.5t-42 62.5t-15.5 76.5q0 40 15.5 75.5t42 62t63 42t78.5 15.5q27 0 51.5 -8t43.5 -19.5t31.5 -25t16.5 -23.5q0 17 2 34t2 34h129v-60h-78v-506h66v-59h-208v59z"/>
<glyph glyph-name="r" horiz-adv-x="357" unicode="r" d="M35 59h77v256h-69v60h122l1 -22q1 -21 2.5 -37.5t2.5 -37.5q12 25 30 44.5t38.5 33t42 20.5t40.5 7l-4 -61q-31 0 -57.5 -10t-45.5 -27t-30 -40.5t-11 -51.5v-134h69v-59h-208v59z"/>
<glyph glyph-name="s" horiz-adv-x="327" unicode="s" d="M105 111v-45q16 -9 32 -11t36 -2q5 0 14.5 2t19.5 8t18 16.5t8 29.5q0 20 -12 31t-31 18.5t-41.5 14t-42 17.5t-32.5 30.5t-13 53.5q0 29 11 49.5t28 33.5t37 19t38 6q7 0 20.5 -1.5t29 -5.5t30.5 -11.5t26 -19.5v-80h-56v47q-11 7 -25.5 9t-21.5 2q-23 0 -38.5 -11.5 t-15.5 -32.5v-5q2 -17 15.5 -27t32.5 -18t40.5 -16t40 -21t31 -33t12.5 -51q0 -15 -6 -35t-20 -38t-38 -30t-61 -12q-14 0 -31 2t-33.5 6.5t-32 12t-25.5 18.5v80h56z"/>
<glyph glyph-name="t" horiz-adv-x="324" unicode="t" d="M120 619h63v-244h106v-61h-106v-255h78v-59h-141v314h-85v61h85v244z"/>
<glyph glyph-name="u" horiz-adv-x="554" unicode="u" d="M35 375h132v-247q2 -30 21.5 -51.5t59.5 -23.5q28 0 54 9.5t45.5 27t31.5 41t12 51.5v133h-70v60h132v-322h66v-53h-126l-1 52l2 45q-20 -48 -64.5 -76.5t-99.5 -28.5q-57 0 -90 31t-35 81v211h-70v60z"/>
<glyph glyph-name="v" horiz-adv-x="586" unicode="v" d="M35 375h204v-60h-59q31 -57 61 -114.5t53 -114.5q23 56 52.5 114t61.5 115h-59v60h202v-60h-78q-45 -85 -89.5 -169t-89.5 -169q-45 85 -89.5 169t-89.5 169h-80v60z"/>
<glyph glyph-name="w" horiz-adv-x="839" unicode="w" d="M612 375h192v-60h-72q-43 -85 -85.5 -169t-84.5 -169l-136 270l-136 -270q-43 85 -85.5 169t-85.5 169h-84v60h193v-60h-47q29 -57 57 -114.5t52 -114.5q17 44 37.5 86t41.5 84v59h-58v60h204v-60h-62q29 -57 57 -114.5t52 -114.5q23 58 51 115t57 114h-58v60z"/>
<glyph glyph-name="x" horiz-adv-x="515" unicode="x" d="M35 375h208v-60h-43l66 -90l64 90h-42v60h192v-60h-75l-100 -138q21 -30 42.5 -59t43.5 -59h89v-59h-208v59h41q-17 23 -32 44t-31 43l-63 -87h39v-59h-191v59h75q26 35 51 69t50 69q-22 30 -43.5 59.5t-42.5 58.5h-90v60z"/>
<glyph glyph-name="y" horiz-adv-x="609" unicode="y" d="M92 -191h87q23 48 47.5 95.5t47.5 94.5q-40 79 -79.5 158t-79.5 158h-80v60h204v-60h-59q34 -64 67 -129t59 -130q26 64 59 129t67 130h-60v60h202v-60h-77q-64 -127 -127.5 -252.5t-126.5 -253.5h57v-59h-208v59z"/>
<glyph glyph-name="z" horiz-adv-x="433" unicode="z" d="M398 116v-116h-363v61q69 64 127.5 126.5t127.5 127.5h-243v95h56v-35h274v-61q-69 -65 -127.5 -127t-127.5 -126h220v55h56z"/>
<glyph glyph-name="braceleft" horiz-adv-x="306" unicode="{" d="M30 265v64q24 1 39.5 14.5t24.5 33.5t12 43.5t3 43.5v164q0 46 9 70.5t24 35t34.5 11.5t40.5 1h56v-61h-48q-15 0 -25 -4.5t-16 -16.5t-8.5 -32.5t-2.5 -52.5v-135q0 -36 -6 -60.5t-16 -41.5t-21.5 -27t-22.5 -17q11 -6 22.5 -16.5t21.5 -27.5t16 -42t6 -59v-135 q0 -32 2.5 -52.5t8.5 -32.5t16 -16.5t25 -4.5h48v-61h-56q-22 0 -41.5 1t-34.5 12.5t-23.5 38t-8.5 77.5v150q0 20 -3 43.5t-12 43.5t-24.5 33.5t-39.5 14.5z"/>
<glyph glyph-name="bar" horiz-adv-x="255" unicode="|" d="M93 -232v932h63v-932h-63z"/>
<glyph glyph-name="braceright" horiz-adv-x="320" unicode="}" d="M290 329v-64q-26 -1 -42 -16.5t-24 -38t-10.5 -47.5t-2.5 -44v-150q0 -46 -9 -70.5t-24 -35t-34.5 -11.5t-40.5 -1h-56v61h48q15 0 25 4.5t16 16.5t8.5 32.5t2.5 52.5v146q0 31 7 54t17 39t21.5 25.5t20.5 15.5q-11 7 -22.5 17t-21.5 27t-16 41.5t-6 60.5v135 q0 32 -2.5 52.5t-8.5 32.5t-16 16.5t-25 4.5h-48v61h56q21 0 40.5 -1t34.5 -11.5t24 -35t9 -70.5v-153q0 -20 2.5 -44.5t10.5 -47t24 -38t42 -16.5z"/>
<glyph glyph-name="asciitilde" horiz-adv-x="489" unicode="~" d="M269 486q-15 17 -26.5 22t-25.5 5q-7 0 -16.5 -2t-18 -7.5t-15 -15t-7.5 -24.5l-36 3q1 19 9.5 34.5t21 26t28 16t30.5 5.5q22 0 39.5 -9.5t34.5 -25.5q15 -17 27 -22t26 -5q7 0 16 2t17.5 7.5t15 15t8.5 24.5q8 -1 17 -1.5t18 -1.5q-1 -20 -9.5 -35t-21 -25.5 t-27.5 -15.5t-30 -5q-23 0 -40.5 9.5t-34.5 24.5z"/>
<glyph glyph-name="exclamdown" horiz-adv-x="200" unicode="¡" d="M68 -210v584h63v-584h-63zM100 529q16 0 29 -12t13 -31t-13 -30t-29 -12q-16 0 -29 12q-13 11 -13 30t13 31t29 12z"/>
<glyph glyph-name="cent" horiz-adv-x="385" unicode="¢" d="M98 188q0 -45 25.5 -79.5t66.5 -46.5v251q-41 -12 -66.5 -46t-25.5 -79zM321 82l38 -47q-45 -35 -106 -42v-61h-63v66q-33 7 -61.5 24.5t-49 42.5t-32 56.5t-11.5 66.5q0 34 11.5 65.5t32 57t49 43t61.5 24.5v60h63v-56q31 -2 57.5 -13t49.5 -28l-1 -1v-21v-86h-56v71 q-21 14 -50 17v-267q38 5 68 28z"/>
<glyph glyph-name="sterling" horiz-adv-x="574" unicode="£" d="M529 0h-501v61h44q16 0 26.5 4.5t16 17.5t7.5 35.5t2 57.5v108h-65v61h65v155q0 69 54 101.5t148 32.5q67 0 105.5 -28.5t58.5 -68.5l-47 -27q-8 12 -16 23t-21 20t-32 14.5t-48 5.5q-73 0 -106 -20t-33 -67v-141h121v-61h-121v-137q0 -29 -3 -50.5t-19 -35.5h301v100h63 v-161z"/>
<glyph glyph-name="currency" horiz-adv-x="500" unicode="¤" d="M95 361q0 23 7 43t18 38q-8 7 -14 13.5t-14 14.5l44 44l29 -28q18 11 38.5 18t43.5 7q45 0 83 -25l28 28l44 -44l-26 -27q11 -18 18 -39t7 -43q0 -46 -27 -84l29 -29l-44 -44q-8 8 -15.5 15t-15.5 15q-35 -24 -81 -24t-81 23l-30 -30l-44 44l29 29q-12 18 -19 39.5 t-7 45.5zM158 360q0 -37 26.5 -63t63.5 -26t63.5 26t26.5 63q0 38 -26.5 64.5t-63.5 26.5t-63.5 -26.5t-26.5 -64.5z"/>
<glyph glyph-name="yen" horiz-adv-x="638" unicode="¥" d="M530 100h-130v-41h75v-59h-221v59h70v41h-128v61h128v102h-128v61h95l-189 316h-89v60h222v-60h-57q43 -72 86.5 -143t85.5 -144l11 -29h1l12 29l170 287h-55v60h222v-60h-90q-47 -80 -93.5 -158.5t-94.5 -157.5h96v-61h-129v-19v-83h130v-61z"/>
<glyph glyph-name="brokenbar" horiz-adv-x="215" unicode="¦" d="M142 350h-63v350h63v-350zM142 -233h-63v350h63v-350z"/>
<glyph glyph-name="section" horiz-adv-x="500" unicode="§" d="M226 150q-23 36 -37 60t-22.5 39t-13.5 24t-8 16q-13 22 -16 40.5t-3 29.5q0 13 3.5 32t16 41t33.5 37q29 19 65 19q9 0 18 -1q-13 20 -24 40t-23 41q-18 30 -23.5 49t-5.5 33q0 4 1.5 14t10.5 22t22 21q15 13 35.5 23.5t37.5 21.5q16 -28 32 -52q-11 -6 -21.5 -12 t-21.5 -12q-25 -15 -25 -36t26 -64q23 -38 44.5 -75t44.5 -75q13 -22 16 -40t3 -29q0 -14 -4 -32.5t-17.5 -39.5t-34.5 -36q-30 -21 -66 -21q-8 0 -17 1q13 -20 25 -41t24 -41q18 -30 23.5 -50t5.5 -33q0 -4 -1 -14.5t-10 -22t-22 -20.5q-16 -13 -35.5 -23.5t-37.5 -21.5 q-8 13 -15.5 26t-15.5 27l42 24q13 7 19 16t5 21.5t-9 30t-24 43.5zM188 345q5 -27 25 -43t46 -16h3q31 1 50.5 23.5t19.5 50.5q0 17 -7.5 31t-18 24t-24 15t-28.5 4q-18 -1 -32 -9t-23 -20.5t-11 -23.5t-2 -18q0 -9 2 -18z"/>
<glyph glyph-name="dieresis" horiz-adv-x="370" unicode="¨" d="M59 514q0 18 13 30.5t29 12.5t29 -12.5t13 -30.5q0 -19 -13 -30.5t-29 -11.5t-29 11.5t-13 30.5zM225 514q0 18 12.5 30.5t29.5 12.5q16 0 29 -12.5t13 -30.5q0 -19 -13 -30.5t-29 -11.5q-17 0 -29.5 11.5t-12.5 30.5z"/>
<glyph glyph-name="copyright" horiz-adv-x="793" unicode="©" d="M474 464v34q-26 12 -56 12q-27 0 -51.5 -10.5t-42.5 -29t-28.5 -43t-10.5 -52.5t10.5 -52.5t28.5 -43t42 -29t52 -10.5q35 0 67 19l15 -23q-18 -11 -38.5 -17t-43.5 -6q-33 0 -62.5 13t-51.5 35t-34.5 51.5t-12.5 62.5q0 34 12.5 63.5t34.5 51.5t51.5 34.5t62.5 12.5 q44 0 83 -22v-51h-27zM400 113q-54 0 -101.5 19.5t-83 54.5t-56 82t-20.5 103t20.5 104t56 82.5t83 54t101.5 19.5t101.5 -19.5t83 -54t56 -82.5t20.5 -104t-20.5 -103t-56 -82t-83 -54.5t-101.5 -19.5zM400 143q48 0 89.5 17.5t72.5 48t48.5 72.5t17.5 91q0 50 -17.5 92 t-48.5 73t-72.5 48t-89.5 17t-89.5 -17t-72.5 -48t-48.5 -73t-17.5 -92q0 -49 17.5 -91t48.5 -72.5t72.5 -48t89.5 -17.5z"/>
<glyph glyph-name="ordfeminine" horiz-adv-x="585" unicode="ª" d="M129 442q0 -21 7.5 -39t20.5 -31t31 -20.5t39 -7.5t39 7.5t31 20.5t20.5 31t7.5 39q0 20 -7.5 38t-20.5 31t-31 20.5t-39 7.5t-39 -7.5t-31 -20.5t-20.5 -31t-7.5 -38zM83 441q0 29 11.5 54.5t30.5 45t45.5 31t56.5 11.5q20 0 37.5 -6t31.5 -14.5t23 -18t11 -16.5 q0 12 1 24l2 24h37v-227h54v-43h-94v22v23q-3 -7 -11.5 -15.5t-21.5 -16.5t-31 -13.5t-39 -5.5q-30 0 -56.5 11.5t-45.5 30.5t-30.5 44.5t-11.5 54.5z"/>
<glyph glyph-name="guillemotleft" horiz-adv-x="601" unicode="«" d="M288 77l-171 162q43 41 85.5 80.5t85.5 80.5v-72q-23 -22 -44.5 -44t-43.5 -45q22 -23 43.5 -45.5t44.5 -45.5v-71zM459 77l-171 162q43 41 85.5 80.5t85.5 80.5v-72q-23 -22 -44.5 -44t-43.5 -45q22 -23 43.5 -45.5t44.5 -45.5v-71z"/>
<glyph glyph-name="logicalnot" horiz-adv-x="559" unicode="¬" d="M397 148v52h-297v46h360v-98h-63z"/>
<glyph glyph-name="hyphen_" horiz-adv-x="300" unicode="­" d="M53 158v61h184v-61h-184z"/>
<glyph glyph-name="registered" horiz-adv-x="801" unicode="®" d="M364 390h45q23 0 38 6t24 15.5t12.5 20.5t3.5 21q0 24 -22.5 42t-55.5 18h-45v-123zM310 238h25v275h-25v28h99q15 0 34 -5t35 -15.5t27 -27t11 -40.5q0 -35 -18 -58t-52 -31l59 -126h43v-28h-61l-72 152h-21h-30v-124h51v-28h-105v28zM400 113q-54 0 -101.5 19.5 t-83 54.5t-56 82t-20.5 103t20.5 104t56 82.5t83 54t101.5 19.5t101.5 -19.5t83 -54t56 -82.5t20.5 -104t-20.5 -103t-56 -82t-83 -54.5t-101.5 -19.5zM400 143q48 0 89.5 17.5t72.5 48t48.5 72.5t17.5 91q0 50 -17.5 92t-48.5 73t-72.5 48t-89.5 17t-89.5 -17t-72.5 -48 t-48.5 -73t-17.5 -92q0 -49 17.5 -91t48.5 -72.5t72.5 -48t89.5 -17.5z"/>
<glyph glyph-name="macron" horiz-adv-x="399" unicode="¯" d="M85 482v41h230v-41h-230z"/>
<glyph glyph-name="degree" horiz-adv-x="282" unicode="°" d="M43 560q0 39 27.5 66t67.5 27q19 0 36 -7t29.5 -20t20 -30t7.5 -36q0 -20 -7.5 -36.5t-20 -29.5t-29.5 -20t-36 -7q-40 0 -67.5 27t-27.5 66zM138 507q22 0 37.5 15t15.5 37q0 23 -15.5 38t-37.5 15t-37.5 -15t-15.5 -38q0 -22 15.5 -37t37.5 -15z"/>
<glyph glyph-name="plusminus" horiz-adv-x="524" unicode="±" d="M446 111h-360v61h360v-61zM234 211v149h-148v61h148v150h63v-150h149v-61h-149v-149h-63z"/>
<glyph glyph-name="twosuperior" horiz-adv-x="398" unicode="²" d="M178 405h107v49h30v-79h-212l60 60t51.5 56.5t36 53t13.5 48.5q0 22 -6.5 36.5t-16 23.5t-21.5 13t-22 4q-20 0 -33 -7t-20.5 -17.5t-10.5 -22.5t-3 -21q0 -32 19 -53l-19 -19q-7 6 -13 14t-10 18t-6 20t-2 20q0 19 6.5 37t18.5 31.5t30.5 21.5t42.5 8q22 0 40 -8 t30.5 -21.5t19.5 -32t7 -39.5q0 -25 -10 -50t-27 -49t-38 -47.5t-42 -47.5z"/>
<glyph glyph-name="threesuperior" horiz-adv-x="419" unicode="³" d="M128 545l80 125h-79v-27h-29v57h161l-79 -119q17 -4 33 -13t27 -22t17.5 -29.5t6.5 -35.5q0 -22 -8.5 -41t-22.5 -33t-33.5 -22.5t-41.5 -8.5q-23 0 -43 9t-34 25l23 22q10 -12 23.5 -19t30.5 -7q15 0 29 6t24.5 16.5t16 24t5.5 28.5t-5.5 28.5t-16 23.5t-24.5 16t-29 6 q-17 0 -32 -10z"/>
<glyph glyph-name="acute" horiz-adv-x="257" unicode="´" d="M100 479q23 33 45 66.5t45 66.5h64q-27 -33 -54 -66.5t-54 -66.5h-46z"/>
<glyph glyph-name="mu" horiz-adv-x="545" unicode="µ" d="M308 375h132v-322h67v-53h-126l-1 52l1 45q-20 -48 -64.5 -76.5t-98.5 -28.5q-41 0 -63 21v-214h-63v516h-69v60h132v-247q2 -30 21.5 -51.5t59.5 -23.5q28 0 54 9.5t45.5 27t31 41t11.5 51.5v133h-70v60z"/>
<glyph glyph-name="paragraph" horiz-adv-x="540" unicode="¶" d="M263 0h-62v423q-34 0 -64 12.5t-52 34.5t-34.5 52t-12.5 64t12.5 64t34.5 52t52 35t64 13h306v-53h-81v-644h81v-53h-143v697h-101v-697z"/>
<glyph glyph-name="periodcentered" horiz-adv-x="166" unicode="·" d="M43 281q0 19 13 31t29 12t29 -12t13 -31t-13 -30.5t-29 -11.5t-29 11.5t-13 30.5z"/>
<glyph glyph-name="cedilla" horiz-adv-x="452" unicode="¸" d="M187 0h40v-7q0 -14 4 -22.5t10 -14t13.5 -9.5t13.5 -8q22 -16 30.5 -35.5t8.5 -41.5q0 -45 -26 -74.5t-72 -29.5q-32 0 -59 17.5t-38 52.5l36 18q6 -17 20.5 -28.5t35.5 -11.5q26 0 41 17t15 43q0 22 -11.5 35t-25 22.5t-25 19.5t-11.5 28v29z"/>
<glyph glyph-name="onesuperior" horiz-adv-x="266" unicode="¹" d="M63 428h36v244h-37v28h66v-272h37v-27h-102v27z"/>
<glyph glyph-name="ordmasculine" horiz-adv-x="469" unicode="º" d="M136 441q0 -20 7.5 -38t20.5 -31t30.5 -20.5t37.5 -7.5q21 0 39 7.5t31 20.5t20.5 31t7.5 38t-7.5 38t-20.5 31.5t-31 21t-39 7.5q-20 0 -37.5 -7.5t-30.5 -21t-20.5 -31.5t-7.5 -38zM90 442q0 28 11.5 54t31 45.5t45 30.5t55.5 11t56.5 -11t46 -30.5t30.5 -45.5t11 -54 q0 -30 -11 -55.5t-30.5 -44.5t-46 -30.5t-56.5 -11.5t-55.5 11.5t-45 30.5t-31 44.5t-11.5 55.5z"/>
<glyph glyph-name="guillemotright" horiz-adv-x="601" unicode="»"/>
<glyph glyph-name="onequarter" horiz-adv-x="968" unicode="¼" d="M128 276h56v376h-58v43h102v-419h57v-42h-157v42zM727 353l-131 -171h131v171zM670 44h57v92h-226l272 354v-308h72v-46h-72v-92h62v-44h-165v44zM268 -19q70 190 139 377.5t139 377.5h63q-70 -190 -139 -377.5t-139 -377.5h-63z"/>
<glyph glyph-name="onehalf" horiz-adv-x="1069" unicode="½" d="M268 -19q70 190 139 377.5t139 377.5h63q-70 -190 -139 -377.5t-139 -377.5h-63zM667 43h155v70h42v-113h-303q44 44 85.5 86t73.5 81t51.5 76t19.5 70q0 31 -9 52t-23 34t-31 18.5t-32 5.5q-29 0 -47.5 -10t-29 -25t-15 -32t-4.5 -31q0 -46 28 -76l-27 -26 q-11 7 -19.5 19t-14 26t-8.5 29t-3 28q0 29 9 54.5t26.5 45t44 30.5t60.5 11q32 0 57.5 -11t44 -31t28.5 -46t10 -56q0 -37 -15 -72.5t-38.5 -70t-54 -68.5t-61.5 -68zM123 276h56v376h-58v43h102v-419h57v-42h-157v42z"/>
<glyph glyph-name="threequarters" horiz-adv-x="1276" unicode="¾" d="M926 353l-131 -171h131v171zM869 44h57v92h-225l272 354v-308h72v-46h-72v-92h61v-44h-165v44zM450 -19q70 190 139 377.5t139 377.5h63q-70 -190 -139 -377.5t-139 -377.5h-63zM214 465l125 195h-124v-41h-45v88h251l-123 -187q28 -6 52 -20t42 -34.5t28 -46t10 -56.5 q0 -34 -13 -63.5t-35.5 -52t-52.5 -35.5t-64 -13q-37 0 -68 14t-54 39l36 34q15 -18 37 -29t48 -11q24 0 45.5 9.5t37.5 25.5t25.5 37.5t9.5 44.5q0 24 -9.5 45.5t-25.5 37t-37.5 24.5t-45.5 9q-26 0 -50 -14z"/>
<glyph glyph-name="questiondown" horiz-adv-x="439" unicode="¿" d="M255.025 531.001q15.998 0 28.9961 -11.499q12.999 -11.498 12.999 -30.4961q0 -17.998 -12.999 -30.4961q-12.998 -12.498 -28.9961 -12.498t-28.9961 12.498q-12.999 12.498 -12.999 30.4961q0 18.998 12.999 30.4961q12.998 11.499 28.9961 11.499zM369.012 -25.9307 q13.998 -5 27.4961 -9.99902q13.498 -5 27.4971 -9.99902q-7.99902 -23.9971 -22.4971 -49.9941q-14.499 -25.9961 -37.4961 -47.4941q-22.9971 -21.4971 -56.4932 -35.4951q-33.4951 -13.998 -78.4902 -13.998q-40.9951 0 -76.9902 15.498 q-35.9961 15.498 -62.4922 41.9941q-26.4971 26.4971 -41.4951 61.9932q-14.998 35.4951 -14.998 75.4902q0 54.9932 26.4961 96.4883q26.4971 41.4951 71.4912 74.4912q14.999 11.998 31.4961 21.9971q16.498 9.99902 29.9971 22.9971q13.498 12.998 21.9971 31.9961 t8.49902 46.9941v77.9902h62.9922v-96.9873q0 -30.9971 -10.499 -50.9941q-10.498 -19.9971 -27.9961 -34.9961q-17.498 -14.998 -39.4951 -28.4961q-21.998 -13.498 -44.9951 -33.4961q-34.9951 -26.9971 -50.9932 -58.9932t-15.998 -68.9912q0 -28.9961 9.99805 -53.4932 q9.99902 -24.4971 27.4971 -42.4951t41.9951 -27.9961q24.4971 -9.99902 53.4932 -9.99902q56.9932 0 90.4893 27.4961q33.4961 27.4971 49.4941 78.4912z"/>
<glyph glyph-name="Agrave" horiz-adv-x="800" unicode="À" d="M409 563l-10 31q-1 -2 -2 -7t-3 -10l-4 -14q-5 -13 -15.5 -37.5t-23 -54.5t-26 -62.5t-25.5 -60.5h200zM35 59h80q71 170 142 336.5t143 336.5q72 -170 142.5 -336.5t142.5 -336.5h80v-59h-208v59h65q-25 58 -48.5 115t-48.5 115h-250q-25 -58 -49 -115t-49 -115h66v-59 h-208v59zM329 883q23 -33 45 -66.5t45 -66.5h-46q-27 33 -54 66.5t-54 66.5h64z"/>
<glyph glyph-name="Aacute" horiz-adv-x="800" unicode="Á" d="M379 750q23 33 45 66.5t45 66.5h64q-27 -33 -54 -66.5t-54 -66.5h-46zM409 563l-10 31q-1 -2 -2 -7t-3 -10l-4 -14q-5 -13 -15.5 -37.5t-23 -54.5t-26 -62.5t-25.5 -60.5h200zM35 59h80q71 170 142 336.5t143 336.5q72 -170 142.5 -336.5t142.5 -336.5h80v-59h-208v59h65 q-25 58 -48.5 115t-48.5 115h-250q-25 -58 -49 -115t-49 -115h66v-59h-208v59z"/>
<glyph glyph-name="Acircumflex" horiz-adv-x="800" unicode="Â" d="M400 931q30 -45 60 -90.5t60 -90.5h-46q-19 24 -37.5 48t-36.5 49q-19 -25 -37 -49t-37 -48h-46q30 45 60 90.5t60 90.5zM409 563l-10 31q-1 -2 -2 -7t-3 -10l-4 -14q-5 -13 -15.5 -37.5t-23 -54.5t-26 -62.5t-25.5 -60.5h200zM35 59h80q71 170 142 336.5t143 336.5 q72 -170 142.5 -336.5t142.5 -336.5h80v-59h-208v59h65q-25 58 -48.5 115t-48.5 115h-250q-25 -58 -49 -115t-49 -115h66v-59h-208v59z"/>
<glyph glyph-name="Atilde" horiz-adv-x="800" unicode="Ã" d="M390 785q-15 17 -26.5 22t-25.5 5q-7 0 -16.5 -2t-18 -7.5t-15 -15t-7.5 -24.5l-36 3q1 19 9.5 34.5t21 26t28 16t30.5 5.5q22 0 39.5 -9.5t34.5 -25.5q15 -17 27 -22t26 -5q7 0 16 2t17.5 7.5t15 15t8.5 24.5q8 -1 17 -1.5t18 -1.5q-1 -20 -9.5 -35t-21 -25.5 t-27.5 -15.5t-30 -5q-23 0 -40.5 9.5t-34.5 24.5zM409 563l-10 31q-1 -2 -2 -7t-3 -10l-4 -14q-5 -13 -15.5 -37.5t-23 -54.5t-26 -62.5t-25.5 -60.5h200zM35 59h80q71 170 142 336.5t143 336.5q72 -170 142.5 -336.5t142.5 -336.5h80v-59h-208v59h65q-25 58 -48.5 115 t-48.5 115h-250q-25 -58 -49 -115t-49 -115h66v-59h-208v59z"/>
<glyph glyph-name="Adieresis" horiz-adv-x="800" unicode="Ä" d="M275 804q0 18 13 30.5t29 12.5t29 -12.5t13 -30.5q0 -19 -13 -30.5t-29 -11.5t-29 11.5t-13 30.5zM441 804q0 18 12.5 30.5t29.5 12.5q16 0 29 -12.5t13 -30.5q0 -19 -13 -30.5t-29 -11.5q-17 0 -29.5 11.5t-12.5 30.5zM409 563l-10 31q-1 -2 -2 -7t-3 -10l-4 -14 q-5 -13 -15.5 -37.5t-23 -54.5t-26 -62.5t-25.5 -60.5h200zM35 59h80q71 170 142 336.5t143 336.5q72 -170 142.5 -336.5t142.5 -336.5h80v-59h-208v59h65q-25 58 -48.5 115t-48.5 115h-250q-25 -58 -49 -115t-49 -115h66v-59h-208v59z"/>
<glyph glyph-name="Aring" horiz-adv-x="800" unicode="Å" d="M320 836q0 33 23.5 56.5t56.5 23.5q32 0 55.5 -23.5t23.5 -56.5t-23.5 -56.5t-55.5 -23.5q-33 0 -56.5 23.5t-23.5 56.5zM362 835q0 -15 11 -26t27 -10q16 -1 26.5 10t10.5 26q0 16 -10.5 27t-26.5 11t-27 -11t-11 -27zM409 563l-10 31q-1 -2 -2 -7t-3 -10l-4 -14 q-5 -13 -15.5 -37.5t-23 -54.5t-26 -62.5t-25.5 -60.5h200zM35 59h80q71 170 142 336.5t143 336.5q72 -170 142.5 -336.5t142.5 -336.5h80v-59h-208v59h65q-25 58 -48.5 115t-48.5 115h-250q-25 -58 -49 -115t-49 -115h66v-59h-208v59z"/>
<glyph glyph-name="AE" horiz-adv-x="776" unicode="Æ" d="M395 339v244q-20 -62 -47 -122.5t-53 -121.5h100zM668 546v94h-211v-258h231v-59h-231v-264h225v95h59v-154h-346v280h-125q-23 -56 -46.5 -110.5t-46.5 -110.5h66v-59h-208v59h79q69 161 135.5 320.5t135.5 320.5h342v-154h-59z"/>
<glyph glyph-name="Ccedilla" horiz-adv-x="583" unicode="Ç" d="M515 450v170q-58 28 -123 28q-61 0 -114.5 -23.5t-93.5 -64.5t-63.5 -95.5t-23.5 -115.5q0 -62 23 -116t63 -94.5t93.5 -64t114.5 -23.5q41 0 78 10.5t71 30.5l34 -50q-38 -23 -81 -35.5t-91 -14.5v-8.5t1 -5.5q5 -18 17 -24.5t23 -14.5q22 -16 31 -35.5t9 -41.5 q0 -45 -26.5 -74.5t-72.5 -29.5q-32 0 -58.5 17.5t-38.5 52.5l37 18q5 -17 19.5 -28.5t35.5 -11.5q26 0 41 17t15 43q0 22 -11.5 35t-25 22.5t-25 19.5t-11.5 28v23q-69 5 -128.5 35t-103.5 77.5t-69.5 110t-25.5 132.5q0 74 28 139.5t76.5 114t113.5 77t139 28.5 q51 0 96.5 -13t86.5 -37v-208h-60z"/>
<glyph glyph-name="Egrave" horiz-adv-x="571" unicode="È" d="M35 59h64v581h-64v60h487v-154h-60v94h-301v-258h322v-59h-322v-264h315v95h60v-154h-501v59zM225 883q23 -33 45 -66.5t45 -66.5h-46q-27 33 -54 66.5t-54 66.5h64z"/>
<glyph glyph-name="Eacute" horiz-adv-x="571" unicode="É" d="M35 59h64v581h-64v60h487v-154h-60v94h-301v-258h322v-59h-322v-264h315v95h60v-154h-501v59zM267 750q23 33 45 66.5t45 66.5h64q-27 -33 -54 -66.5t-54 -66.5h-46z"/>
<glyph glyph-name="Ecircumflex" horiz-adv-x="571" unicode="Ê" d="M35 59h64v581h-64v60h487v-154h-60v94h-301v-258h322v-59h-322v-264h315v95h60v-154h-501v59zM300 931q30 -45 60 -90.5t60 -90.5h-46q-19 24 -37.5 48t-36.5 49q-19 -25 -37 -49t-37 -48h-46q30 45 60 90.5t60 90.5z"/>
<glyph glyph-name="Edieresis" horiz-adv-x="571" unicode="Ë" d="M35 59h64v581h-64v60h487v-154h-60v94h-301v-258h322v-59h-322v-264h315v95h60v-154h-501v59zM167 804q0 18 13 30.5t29 12.5t29 -12.5t13 -30.5q0 -19 -13 -30.5t-29 -11.5t-29 11.5t-13 30.5zM333 804q0 18 12.5 30.5t29.5 12.5q16 0 29 -12.5t13 -30.5 q0 -19 -13 -30.5t-29 -11.5q-17 0 -29.5 11.5t-12.5 30.5z"/>
<glyph glyph-name="Igrave" horiz-adv-x="292" unicode="Ì" d="M35 59h78v581h-78v60h222v-60h-81v-581h81v-59h-222v59zM68 883q23 -33 45 -66.5t45 -66.5h-46q-27 33 -54 66.5t-54 66.5h64z"/>
<glyph glyph-name="Iacute" horiz-adv-x="292" unicode="Í" d="M35 59h78v581h-78v60h222v-60h-81v-581h81v-59h-222v59zM130 750q23 33 45 66.5t45 66.5h64q-27 -33 -54 -66.5t-54 -66.5h-46z"/>
<glyph glyph-name="Icircumflex" horiz-adv-x="294" unicode="Î" d="M35 59h78v581h-78v60h222v-60h-81v-581h81v-59h-222v59zM147 931q30 -45 60 -90.5t60 -90.5h-46q-19 24 -37.5 48t-36.5 49q-19 -25 -37 -49t-37 -48h-46q30 45 60 90.5t60 90.5z"/>
<glyph glyph-name="Idieresis" horiz-adv-x="293" unicode="Ï" d="M35 59h78v581h-78v60h222v-60h-81v-581h81v-59h-222v59zM22 804q0 18 13 30.5t29 12.5t29 -12.5t13 -30.5q0 -19 -13 -30.5t-29 -11.5t-29 11.5t-13 30.5zM188 804q0 18 12.5 30.5t29.5 12.5q16 0 29 -12.5t13 -30.5q0 -19 -13 -30.5t-29 -11.5q-17 0 -29.5 11.5 t-12.5 30.5z"/>
<glyph glyph-name="Eth" horiz-adv-x="632" unicode="Ð" d="M152 640v-259h194v-61h-194v-260h78q71 0 127.5 23t96 62t60.5 92t21 113q0 66 -23 120t-63 91.5t-94 58t-115 20.5h-88zM44 381h46v259h-55v60h210q72 0 136 -24.5t112 -70.5t76 -110.5t28 -145.5q0 -59 -20.5 -121t-66.5 -112.5t-119.5 -83t-179.5 -32.5h-176v59h55 v261h-46v61z"/>
<glyph glyph-name="Ntilde" horiz-adv-x="812" unicode="Ñ" d="M35 59h84v581h-84v60h112l505 -568l19 -26l-3 32v502h-74v60h221v-60h-85v-672l-533 591l-18 25l2 -31v-494h76v-59h-222v59zM394 778q-15 17 -26.5 22t-25.5 5q-7 0 -16.5 -2t-18 -7.5t-15 -15t-7.5 -24.5l-36 3q1 19 9.5 34.5t21 26t28 16t30.5 5.5q22 0 39.5 -9.5 t34.5 -25.5q15 -17 27 -22t26 -5q7 0 16 2t17.5 7.5t15 15t8.5 24.5q8 -1 17 -1.5t18 -1.5q-1 -20 -9.5 -35t-21 -25.5t-27.5 -15.5t-30 -5q-23 0 -40.5 9.5t-34.5 24.5z"/>
<glyph glyph-name="Ograve" horiz-adv-x="786" unicode="Ò" d="M97 349q0 -62 23 -116t63 -94.5t94 -64t115 -23.5t115 23.5t94.5 64t64 94.5t23.5 116q0 61 -23.5 115.5t-64 95.5t-94 64.5t-114.5 23.5t-115 -23.5t-94 -64.5t-63.5 -95.5t-23.5 -115.5zM35 349q0 74 28 139.5t76.5 114t113.5 77t139 28.5t139.5 -28.5t114 -77t77 -114 t28.5 -139.5t-28.5 -139t-77 -113.5t-114 -76.5t-139.5 -28t-139 28t-113.5 76.5t-76.5 113.5t-28 139zM330 883q23 -33 45 -66.5t45 -66.5h-46q-27 33 -54 66.5t-54 66.5h64z"/>
<glyph glyph-name="Oacute" horiz-adv-x="786" unicode="Ó" d="M97 349q0 -62 23 -116t63 -94.5t94 -64t115 -23.5t115 23.5t94.5 64t64 94.5t23.5 116q0 61 -23.5 115.5t-64 95.5t-94 64.5t-114.5 23.5t-115 -23.5t-94 -64.5t-63.5 -95.5t-23.5 -115.5zM35 349q0 74 28 139.5t76.5 114t113.5 77t139 28.5t139.5 -28.5t114 -77t77 -114 t28.5 -139.5t-28.5 -139t-77 -113.5t-114 -76.5t-139.5 -28t-139 28t-113.5 76.5t-76.5 113.5t-28 139zM381 750q23 33 45 66.5t45 66.5h64q-27 -33 -54 -66.5t-54 -66.5h-46z"/>
<glyph glyph-name="Ocircumflex" horiz-adv-x="786" unicode="Ô" d="M97 349q0 -62 23 -116t63 -94.5t94 -64t115 -23.5t115 23.5t94.5 64t64 94.5t23.5 116q0 61 -23.5 115.5t-64 95.5t-94 64.5t-114.5 23.5t-115 -23.5t-94 -64.5t-63.5 -95.5t-23.5 -115.5zM35 349q0 74 28 139.5t76.5 114t113.5 77t139 28.5t139.5 -28.5t114 -77t77 -114 t28.5 -139.5t-28.5 -139t-77 -113.5t-114 -76.5t-139.5 -28t-139 28t-113.5 76.5t-76.5 113.5t-28 139zM397 931q30 -45 60 -90.5t60 -90.5h-46q-19 24 -37.5 48t-36.5 49q-19 -25 -37 -49t-37 -48h-46q30 45 60 90.5t60 90.5z"/>
<glyph glyph-name="Otilde" horiz-adv-x="786" unicode="Õ" d="M97 349q0 -62 23 -116t63 -94.5t94 -64t115 -23.5t115 23.5t94.5 64t64 94.5t23.5 116q0 61 -23.5 115.5t-64 95.5t-94 64.5t-114.5 23.5t-115 -23.5t-94 -64.5t-63.5 -95.5t-23.5 -115.5zM35 349q0 74 28 139.5t76.5 114t113.5 77t139 28.5t139.5 -28.5t114 -77t77 -114 t28.5 -139.5t-28.5 -139t-77 -113.5t-114 -76.5t-139.5 -28t-139 28t-113.5 76.5t-76.5 113.5t-28 139zM386 813q-15 17 -26.5 22t-25.5 5q-7 0 -16.5 -2t-18 -7.5t-15 -15t-7.5 -24.5l-36 3q1 19 9.5 34.5t21 26t28 16t30.5 5.5q22 0 39.5 -9.5t34.5 -25.5q15 -17 27 -22 t26 -5q7 0 16 2t17.5 7.5t15 15t8.5 24.5q8 -1 17 -1.5t18 -1.5q-1 -20 -9.5 -35t-21 -25.5t-27.5 -15.5t-30 -5q-23 0 -40.5 9.5t-34.5 24.5z"/>
<glyph glyph-name="Odieresis" horiz-adv-x="786" unicode="Ö" d="M97 349q0 -62 23 -116t63 -94.5t94 -64t115 -23.5t115 23.5t94.5 64t64 94.5t23.5 116q0 61 -23.5 115.5t-64 95.5t-94 64.5t-114.5 23.5t-115 -23.5t-94 -64.5t-63.5 -95.5t-23.5 -115.5zM35 349q0 74 28 139.5t76.5 114t113.5 77t139 28.5t139.5 -28.5t114 -77t77 -114 t28.5 -139.5t-28.5 -139t-77 -113.5t-114 -76.5t-139.5 -28t-139 28t-113.5 76.5t-76.5 113.5t-28 139zM273 804q0 18 13 30.5t29 12.5t29 -12.5t13 -30.5q0 -19 -13 -30.5t-29 -11.5t-29 11.5t-13 30.5zM439 804q0 18 12.5 30.5t29.5 12.5q16 0 29 -12.5t13 -30.5 q0 -19 -13 -30.5t-29 -11.5q-17 0 -29.5 11.5t-12.5 30.5z"/>
<glyph glyph-name="multiply" horiz-adv-x="500" unicode="×" d="M370 0q-26 26 -53 52.5t-53 52.5l-52 -52l-52 -52q-11 11 -22 21.5t-22 21.5l105 105l-105 106l44 44l105 -106q27 27 53.5 53t52.5 53q11 -11 21.5 -22t21.5 -22l-105 -105l106 -106z"/>
<glyph glyph-name="Oslash" horiz-adv-x="786" unicode="Ø" d="M35 349q0 74 28 139.5t76.5 114t113.5 77t139 28.5q59 0 111.5 -17.5t96.5 -49.5q16 19 32 37.5t32 37.5q11 -10 21.5 -19.5t21.5 -18.5q-16 -19 -31.5 -37t-31.5 -37q50 -49 78.5 -114.5t28.5 -140.5q0 -74 -28.5 -139t-77 -113.5t-114 -76.5t-139.5 -28q-60 0 -113 18 t-97 50q-16 -18 -31.5 -37t-31.5 -37q-11 9 -22 18.5t-22 19.5q17 18 32 36.5t31 37.5q-48 48 -75.5 112.5t-27.5 138.5zM391 51q61 0 115.5 23.5t95 64t64 94.5t23.5 116q0 60 -23.5 113.5t-62.5 93.5q-96 -113 -190.5 -224.5t-191.5 -224.5q37 -26 79.5 -41t90.5 -15z M97 349q0 -60 21.5 -112t59.5 -92q97 113 191.5 224.5t190.5 224.5q-36 26 -78.5 40t-89.5 14q-61 0 -114.5 -23.5t-93.5 -64.5t-63.5 -95.5t-23.5 -115.5z"/>
<glyph glyph-name="Ugrave" horiz-adv-x="712" unicode="Ù" d="M35 700h222v-60h-83v-411q0 -43 13.5 -76t37.5 -55.5t57.5 -34.5t73.5 -12q39 0 72.5 12t58 34.5t38 55.5t13.5 76v411h-82v60h221v-60h-77v-414q0 -57 -18.5 -101t-51.5 -73.5t-77.5 -44.5t-96.5 -15q-53 0 -97.5 15t-77 44.5t-51 73.5t-18.5 101v414h-77v60zM284 883 q23 -33 45 -66.5t45 -66.5h-46q-27 33 -54 66.5t-54 66.5h64z"/>
<glyph glyph-name="Uacute" horiz-adv-x="712" unicode="Ú" d="M35 700h222v-60h-83v-411q0 -43 13.5 -76t37.5 -55.5t57.5 -34.5t73.5 -12q39 0 72.5 12t58 34.5t38 55.5t13.5 76v411h-82v60h221v-60h-77v-414q0 -57 -18.5 -101t-51.5 -73.5t-77.5 -44.5t-96.5 -15q-53 0 -97.5 15t-77 44.5t-51 73.5t-18.5 101v414h-77v60zM340 750 q23 33 45 66.5t45 66.5h64q-27 -33 -54 -66.5t-54 -66.5h-46z"/>
<glyph glyph-name="Ucircumflex" horiz-adv-x="712" unicode="Û" d="M35 700h222v-60h-83v-411q0 -43 13.5 -76t37.5 -55.5t57.5 -34.5t73.5 -12q39 0 72.5 12t58 34.5t38 55.5t13.5 76v411h-82v60h221v-60h-77v-414q0 -57 -18.5 -101t-51.5 -73.5t-77.5 -44.5t-96.5 -15q-53 0 -97.5 15t-77 44.5t-51 73.5t-18.5 101v414h-77v60zM358 932 q30 -45 60 -90.5t60 -90.5h-46q-19 24 -37.5 48t-36.5 49q-19 -25 -37 -49t-37 -48h-46q30 45 60 90.5t60 90.5z"/>
<glyph glyph-name="Udieresis" horiz-adv-x="712" unicode="Ü" d="M35 700h222v-60h-83v-411q0 -43 13.5 -76t37.5 -55.5t57.5 -34.5t73.5 -12q39 0 72.5 12t58 34.5t38 55.5t13.5 76v411h-82v60h221v-60h-77v-414q0 -57 -18.5 -101t-51.5 -73.5t-77.5 -44.5t-96.5 -15q-53 0 -97.5 15t-77 44.5t-51 73.5t-18.5 101v414h-77v60zM232 804 q0 18 13 30.5t29 12.5t29 -12.5t13 -30.5q0 -19 -13 -30.5t-29 -11.5t-29 11.5t-13 30.5zM398 804q0 18 12.5 30.5t29.5 12.5q16 0 29 -12.5t13 -30.5q0 -19 -13 -30.5t-29 -11.5q-17 0 -29.5 11.5t-12.5 30.5z"/>
<glyph glyph-name="Yacute" horiz-adv-x="768" unicode="Ý" d="M276 59h70v209q-56 93 -111 185.5t-111 186.5h-89v60h222v-60h-57q44 -72 86.5 -143.5t85.5 -143.5l11 -29h1l12 29l170 287h-55v60h222v-60h-90q-56 -94 -111 -186.5t-110 -186.5v-208h75v-59h-221v59zM372 750q23 33 45 66.5t45 66.5h64q-27 -33 -54 -66.5t-54 -66.5 h-46z"/>
<glyph glyph-name="Thorn" horiz-adv-x="524" unicode="Þ" d="M168 216h96q48 0 79.5 12.5t50 32t26 43t7.5 45.5q0 25 -12.5 48t-34 40.5t-51.5 28t-64 10.5h-97v-260zM35 59h71v581h-71v60h208v-60h-75v-105h95q33 0 72 -10.5t73.5 -33t57.5 -57.5t23 -85q0 -88 -54 -140.5t-157 -52.5h-110v-97h89v-59h-222v59z"/>
<glyph glyph-name="germandbls" horiz-adv-x="554" unicode="ß" d="M35 59h67v286h-62v61h62v18q0 55 16.5 98t44.5 73t64.5 46t76.5 16q32 0 60 -12.5t49 -33.5t33 -49t12 -60q0 -35 -16 -64.5t-42 -47.5q52 -25 85.5 -74.5t33.5 -111.5q0 -44 -17 -82.5t-46.5 -67.5t-68.5 -46t-83 -17q-48 0 -92 22l26 55q30 -16 65 -16q31 0 59 12 t49 33t33.5 48.5t12.5 58.5t-12.5 58t-33.5 47.5t-49 32.5t-59 12q0 7 -0.5 14.5t-0.5 15.5v31q39 0 66.5 23.5t27.5 62.5q0 19 -7 36.5t-19 30.5t-28 20.5t-33 7.5h-4q-30 -1 -55.5 -13t-44.5 -34.5t-30 -54.5t-11 -72v-422h-129v59z"/>
<glyph glyph-name="agrave" d="M98 188q0 -29 10.5 -53.5t28.5 -42.5t43 -28.5t54 -10.5t54 10.5t43 28.5t28.5 42.5t10.5 53.5q0 28 -10.5 53t-28.5 43t-43 28.5t-54 10.5t-54 -10.5t-43 -28.5t-28.5 -43t-10.5 -53zM35 187q0 40 15.5 75.5t42 62.5t63 43t78.5 16q28 0 52.5 -8t43.5 -20t31.5 -25 t15.5 -23q0 16 1.5 33t2.5 34h51v-316h75v-59h-130v30v33q-4 -10 -15.5 -22t-30 -23t-43 -18.5t-54.5 -7.5q-42 0 -78.5 15.5t-63 42t-42 62t-15.5 75.5zM180 612q23 -33 45 -66.5t45 -66.5h-46q-27 33 -54 66.5t-54 66.5h64z" unicode="à"/>
<glyph glyph-name="aacute" d="M98 188q0 -29 10.5 -53.5t28.5 -42.5t43 -28.5t54 -10.5t54 10.5t43 28.5t28.5 42.5t10.5 53.5q0 28 -10.5 53t-28.5 43t-43 28.5t-54 10.5t-54 -10.5t-43 -28.5t-28.5 -43t-10.5 -53zM35 187q0 40 15.5 75.5t42 62.5t63 43t78.5 16q28 0 52.5 -8t43.5 -20t31.5 -25 t15.5 -23q0 16 1.5 33t2.5 34h51v-316h75v-59h-130v30v33q-4 -10 -15.5 -22t-30 -23t-43 -18.5t-54.5 -7.5q-42 0 -78.5 15.5t-63 42t-42 62t-15.5 75.5zM232 479q23 33 45 66.5t45 66.5h64q-27 -33 -54 -66.5t-54 -66.5h-46z" unicode="á"/>
<glyph glyph-name="acircumflex" d="M98 188q0 -29 10.5 -53.5t28.5 -42.5t43 -28.5t54 -10.5t54 10.5t43 28.5t28.5 42.5t10.5 53.5q0 28 -10.5 53t-28.5 43t-43 28.5t-54 10.5t-54 -10.5t-43 -28.5t-28.5 -43t-10.5 -53zM35 187q0 40 15.5 75.5t42 62.5t63 43t78.5 16q28 0 52.5 -8t43.5 -20t31.5 -25 t15.5 -23q0 16 1.5 33t2.5 34h51v-316h75v-59h-130v30v33q-4 -10 -15.5 -22t-30 -23t-43 -18.5t-54.5 -7.5q-42 0 -78.5 15.5t-63 42t-42 62t-15.5 75.5zM261 660q30 -45 60 -90.5t60 -90.5h-46q-19 24 -37.5 48t-36.5 49q-19 -25 -37 -49t-37 -48h-46q30 45 60 90.5 t60 90.5z" unicode="â"/>
<glyph glyph-name="atilde" d="M98 188q0 -29 10.5 -53.5t28.5 -42.5t43 -28.5t54 -10.5t54 10.5t43 28.5t28.5 42.5t10.5 53.5q0 28 -10.5 53t-28.5 43t-43 28.5t-54 10.5t-54 -10.5t-43 -28.5t-28.5 -43t-10.5 -53zM35 187q0 40 15.5 75.5t42 62.5t63 43t78.5 16q28 0 52.5 -8t43.5 -20t31.5 -25 t15.5 -23q0 16 1.5 33t2.5 34h51v-316h75v-59h-130v30v33q-4 -10 -15.5 -22t-30 -23t-43 -18.5t-54.5 -7.5q-42 0 -78.5 15.5t-63 42t-42 62t-15.5 75.5zM228 486q-15 17 -26.5 22t-25.5 5q-7 0 -16.5 -2t-18 -7.5t-15 -15t-7.5 -24.5l-36 3q1 19 9.5 34.5t21 26t28 16 t30.5 5.5q22 0 39.5 -9.5t34.5 -25.5q15 -17 27 -22t26 -5q7 0 16 2t17.5 7.5t15 15t8.5 24.5q8 -1 17 -1.5t18 -1.5q-1 -20 -9.5 -35t-21 -25.5t-27.5 -15.5t-30 -5q-23 0 -40.5 9.5t-34.5 24.5z" unicode="ã"/>
<glyph glyph-name="adieresis" d="M98 188q0 -29 10.5 -53.5t28.5 -42.5t43 -28.5t54 -10.5t54 10.5t43 28.5t28.5 42.5t10.5 53.5q0 28 -10.5 53t-28.5 43t-43 28.5t-54 10.5t-54 -10.5t-43 -28.5t-28.5 -43t-10.5 -53zM35 187q0 40 15.5 75.5t42 62.5t63 43t78.5 16q28 0 52.5 -8t43.5 -20t31.5 -25 t15.5 -23q0 16 1.5 33t2.5 34h51v-316h75v-59h-130v30v33q-4 -10 -15.5 -22t-30 -23t-43 -18.5t-54.5 -7.5q-42 0 -78.5 15.5t-63 42t-42 62t-15.5 75.5zM117 514q0 18 13 30.5t29 12.5t29 -12.5t13 -30.5q0 -19 -13 -30.5t-29 -11.5t-29 11.5t-13 30.5zM283 514 q0 18 12.5 30.5t29.5 12.5q16 0 29 -12.5t13 -30.5q0 -19 -13 -30.5t-29 -11.5q-17 0 -29.5 11.5t-12.5 30.5z" unicode="ä"/>
<glyph glyph-name="aring" d="M165 540q0 33 23.5 56.5t56.5 23.5t56.5 -23.5t23.5 -56.5t-23.5 -56.5t-56.5 -23.5t-56.5 23.5t-23.5 56.5zM208 539q0 -15 11 -26t26 -11q16 0 27 11t11 26q0 16 -11 27t-27 11q-15 0 -26 -11t-11 -27zM98 188q0 -29 10.5 -53.5t28.5 -42.5t43 -28.5t54 -10.5t54 10.5 t43 28.5t28.5 42.5t10.5 53.5q0 28 -10.5 53t-28.5 43t-43 28.5t-54 10.5t-54 -10.5t-43 -28.5t-28.5 -43t-10.5 -53zM35 187q0 40 15.5 75.5t42 62.5t63 43t78.5 16q28 0 52.5 -8t43.5 -20t31.5 -25t15.5 -23q0 16 1.5 33t2.5 34h51v-316h75v-59h-130v30v33 q-4 -10 -15.5 -22t-30 -23t-43 -18.5t-54.5 -7.5q-42 0 -78.5 15.5t-63 42t-42 62t-15.5 75.5z" unicode="å"/>
<glyph glyph-name="ae" horiz-adv-x="603" unicode="æ" d="M90 291q-9 11 -17.5 20.5t-17.5 20.5q11 10 27.5 19t35.5 16t39 11t38 4q77 0 110 -20q42 20 89 20q62 0 108.5 -43t65.5 -110q-54 -21 -109 -41.5t-109 -41.5v-17q0 -21 -3.5 -37t-12.5 -29q27 -12 60 -12q27 0 50.5 10.5t40.5 27.5q9 -12 18.5 -23.5t19.5 -22.5 q-26 -24 -58.5 -38t-70.5 -14q-50 0 -94 22q-37 -23 -106 -23q-36 0 -65 5.5t-50 19t-32.5 35.5t-11.5 56q0 30 12.5 50t33 32.5t46.5 17.5t54 5h106v33q0 19 -3.5 33.5t-13 24.5t-28 14.5t-48.5 4.5q-13 0 -28 -2.5t-29.5 -7t-27 -9.5t-19.5 -11zM287 147h-67 q-15 0 -36 -0.5t-40 -4.5t-32.5 -13t-13.5 -26q0 -16 9 -26t22.5 -16t30.5 -8t34 -2q15 0 31.5 1.5t30 7.5t22.5 17t9 30v40zM350 242v-31q35 14 69 26.5t69 26.5q-15 26 -39.5 41.5t-54.5 15.5t-57 -11q8 -12 10.5 -29t2.5 -39z"/>
<glyph glyph-name="ccedilla" horiz-adv-x="395" unicode="ç" d="M320 82l38 -47q-9 -8 -24.5 -16t-33 -14.5t-34.5 -10.5t-30 -3q0 -14 4 -22t10 -13t13.5 -9t14.5 -8q21 -16 30 -35.5t9 -41.5q0 -38 -19.5 -65t-53.5 -35q-9 -3 -22 -3q-6 0 -14 1q-29 2 -52.5 18.5t-34.5 49.5l37 18q5 -17 20 -28.5t35 -11.5q26 0 41 17t15 43 q0 22 -11.5 35t-25 22.5t-25 19.5t-11.5 28v26q-35 6 -64 23t-50.5 42.5t-33.5 57.5t-12 68q0 40 15.5 76t42.5 62.5t63 42t77 15.5q36 0 68 -11.5t58 -31.5v-108h-57v71q-33 19 -69 19q-29 0 -54 -10.5t-43 -28.5t-28.5 -43t-10.5 -53q0 -29 10.5 -53.5t28.5 -42.5 t43 -28.5t54 -10.5q26 0 47.5 7.5t38.5 21.5z"/>
<glyph glyph-name="egrave" horiz-adv-x="445" unicode="è" d="M407 230l-291 -111q17 -30 47.5 -48t69.5 -18q27 0 50.5 10t40.5 27q9 -11 18.5 -22.5t19.5 -22.5q-26 -25 -58.5 -39t-70.5 -14q-41 0 -77 15.5t-63 42t-42.5 62t-15.5 76.5q0 40 15.5 76t42.5 62.5t63 42t77 15.5q31 0 58.5 -11.5t50 -32t39.5 -49t26 -61.5zM233 323 q-31 0 -57 -12t-44 -32t-27 -46q-7 -20 -7 -41q0 -7 1 -14q57 22 114 43.5t114 43.5q-15 26 -39.5 42t-54.5 16zM158 612q23 -33 45 -66.5t45 -66.5h-46q-27 33 -54 66.5t-54 66.5h64z"/>
<glyph glyph-name="eacute" horiz-adv-x="445" unicode="é" d="M407 230l-291 -111q17 -30 47.5 -48t69.5 -18q27 0 50.5 10t40.5 27q9 -11 18.5 -22.5t19.5 -22.5q-26 -25 -58.5 -39t-70.5 -14q-41 0 -77 15.5t-63 42t-42.5 62t-15.5 76.5q0 40 15.5 76t42.5 62.5t63 42t77 15.5q31 0 58.5 -11.5t50 -32t39.5 -49t26 -61.5zM233 323 q-31 0 -57 -12t-44 -32t-27 -46q-7 -20 -7 -41q0 -7 1 -14q57 22 114 43.5t114 43.5q-15 26 -39.5 42t-54.5 16zM223 479q23 33 45 66.5t45 66.5h64q-27 -33 -54 -66.5t-54 -66.5h-46z"/>
<glyph glyph-name="ecircumflex" horiz-adv-x="445" unicode="ê" d="M407 230l-291 -111q17 -30 47.5 -48t69.5 -18q27 0 50.5 10t40.5 27q9 -11 18.5 -22.5t19.5 -22.5q-26 -25 -58.5 -39t-70.5 -14q-41 0 -77 15.5t-63 42t-42.5 62t-15.5 76.5q0 40 15.5 76t42.5 62.5t63 42t77 15.5q31 0 58.5 -11.5t50 -32t39.5 -49t26 -61.5zM233 323 q-31 0 -57 -12t-44 -32t-27 -46q-7 -20 -7 -41q0 -7 1 -14q57 22 114 43.5t114 43.5q-15 26 -39.5 42t-54.5 16zM230 660q30 -45 60 -90.5t60 -90.5h-46q-19 24 -37.5 48t-36.5 49q-19 -25 -37 -49t-37 -48h-46q30 45 60 90.5t60 90.5z"/>
<glyph glyph-name="edieresis" horiz-adv-x="445" unicode="ë" d="M407 230l-291 -111q17 -30 47.5 -48t69.5 -18q27 0 50.5 10t40.5 27q9 -11 18.5 -22.5t19.5 -22.5q-26 -25 -58.5 -39t-70.5 -14q-41 0 -77 15.5t-63 42t-42.5 62t-15.5 76.5q0 40 15.5 76t42.5 62.5t63 42t77 15.5q31 0 58.5 -11.5t50 -32t39.5 -49t26 -61.5zM233 323 q-31 0 -57 -12t-44 -32t-27 -46q-7 -20 -7 -41q0 -7 1 -14q57 22 114 43.5t114 43.5q-15 26 -39.5 42t-54.5 16zM106 514q0 18 13 30.5t29 12.5t29 -12.5t13 -30.5q0 -19 -13 -30.5t-29 -11.5t-29 11.5t-13 30.5zM272 514q0 18 12.5 30.5t29.5 12.5q16 0 29 -12.5t13 -30.5 q0 -19 -13 -30.5t-29 -11.5q-17 0 -29.5 11.5t-12.5 30.5z"/>
<glyph glyph-name="igrave" horiz-adv-x="278" unicode="ì" d="M71 612q23 -33 45 -66.5t45 -66.5h-46q-27 33 -54 66.5t-54 66.5h64zM35 59h74v256h-74v60h136v-316h72v-59h-208v59z"/>
<glyph glyph-name="iacute" horiz-adv-x="278" unicode="í" d="M118 479q23 33 45 66.5t45 66.5h64q-27 -33 -54 -66.5t-54 -66.5h-46zM35 59h74v256h-74v60h136v-316h72v-59h-208v59z"/>
<glyph glyph-name="icircumflex" horiz-adv-x="278" unicode="î" d="M140 660q30 -45 60 -90.5t60 -90.5h-46q-19 24 -37.5 48t-36.5 49q-19 -25 -37 -49t-37 -48h-46q30 45 60 90.5t60 90.5zM35 59h74v256h-74v60h136v-316h72v-59h-208v59z"/>
<glyph glyph-name="idieresis" horiz-adv-x="278" unicode="ï" d="M15 514q0 18 13 30.5t29 12.5t29 -12.5t13 -30.5q0 -19 -13 -30.5t-29 -11.5t-29 11.5t-13 30.5zM181 514q0 18 12.5 30.5t29.5 12.5q16 0 29 -12.5t13 -30.5q0 -19 -13 -30.5t-29 -11.5q-17 0 -29.5 11.5t-12.5 30.5zM35 59h74v256h-74v60h136v-316h72v-59h-208v59z"/>
<glyph glyph-name="eth" horiz-adv-x="467" unicode="ð" d="M118 536q16 17 31.5 33t30.5 33q-22 25 -45 48t-47 43q11 11 22 21l22 20q24 -18 47 -39.5t45 -44.5q14 14 26.5 28.5t26.5 29.5q11 -10 21.5 -19.5t21.5 -18.5q-15 -17 -30 -32.5t-29 -32.5q34 -43 65 -93.5t54.5 -104.5t37.5 -108t14 -105v-5q0 -38 -14 -72.5 t-40.5 -61.5t-62 -43.5t-77.5 -17.5h-5q-38 0 -73.5 14.5t-63 40.5t-44.5 62t-17 80q0 37 14.5 72t41 62t62.5 43t77 17h5q23 0 46.5 -8.5t41.5 -23.5q-13 45 -39 97t-68 106q-14 -15 -27.5 -30t-27.5 -30q-11 11 -21.5 20t-21.5 20zM98 188q0 -29 11 -53.5t29.5 -42.5 t42.5 -27.5t50 -9.5h5q29 0 54 11t43 29.5t27.5 43.5t9.5 53q-1 29 -11.5 53.5t-29 42.5t-43.5 27.5t-54 9.5q-30 -1 -54.5 -11.5t-42.5 -29t-27.5 -43.5t-9.5 -53z"/>
<glyph glyph-name="ntilde" horiz-adv-x="563" unicode="ñ" d="M320 59h78v188q-2 29 -21.5 51t-59.5 24q-29 0 -54.5 -10t-45.5 -27t-31.5 -40.5t-11.5 -51.5v-134h69v-59h-208v59h77v256h-69v60h122l1 -22q1 -21 2.5 -37.5t2.5 -37.5q20 48 64.5 76.5t99.5 28.5q57 0 90 -31t35 -81v-212h68v-59h-208v59zM272 479q-15 17 -26.5 22 t-25.5 5q-7 0 -16.5 -2t-18 -7.5t-15 -15t-7.5 -24.5l-36 3q1 19 9.5 34.5t21 26t28 16t30.5 5.5q22 0 39.5 -9.5t34.5 -25.5q15 -17 27 -22t26 -5q7 0 16 2t17.5 7.5t15 15t8.5 24.5q8 -1 17 -1.5t18 -1.5q-1 -20 -9.5 -35t-21 -25.5t-27.5 -15.5t-30 -5q-23 0 -40.5 9.5 t-34.5 24.5z"/>
<glyph glyph-name="ograve" horiz-adv-x="468" unicode="ò" d="M98 187q0 -28 10.5 -52.5t28.5 -42.5t42.5 -28.5t52.5 -10.5t53 10.5t43.5 28.5t29 42.5t10.5 52.5t-10.5 53t-29 43.5t-43.5 29t-53 10.5t-52.5 -10.5t-42.5 -29t-28.5 -43.5t-10.5 -53zM35 188q0 40 15.5 76t42.5 62.5t63 42t77 15.5q42 0 78.5 -15.5t63.5 -42 t42.5 -62.5t15.5 -76q0 -41 -15.5 -76.5t-42.5 -62t-63.5 -42t-78.5 -15.5q-41 0 -77 15.5t-63 42t-42.5 62t-15.5 76.5zM158 612q23 -33 45 -66.5t45 -66.5h-46q-27 33 -54 66.5t-54 66.5h64z"/>
<glyph glyph-name="oacute" horiz-adv-x="468" unicode="ó" d="M98 187q0 -28 10.5 -52.5t28.5 -42.5t42.5 -28.5t52.5 -10.5t53 10.5t43.5 28.5t29 42.5t10.5 52.5t-10.5 53t-29 43.5t-43.5 29t-53 10.5t-52.5 -10.5t-42.5 -29t-28.5 -43.5t-10.5 -53zM35 188q0 40 15.5 76t42.5 62.5t63 42t77 15.5q42 0 78.5 -15.5t63.5 -42 t42.5 -62.5t15.5 -76q0 -41 -15.5 -76.5t-42.5 -62t-63.5 -42t-78.5 -15.5q-41 0 -77 15.5t-63 42t-42.5 62t-15.5 76.5zM231 479q23 33 45 66.5t45 66.5h64q-27 -33 -54 -66.5t-54 -66.5h-46z"/>
<glyph glyph-name="ocircumflex" horiz-adv-x="468" unicode="ô" d="M98 187q0 -28 10.5 -52.5t28.5 -42.5t42.5 -28.5t52.5 -10.5t53 10.5t43.5 28.5t29 42.5t10.5 52.5t-10.5 53t-29 43.5t-43.5 29t-53 10.5t-52.5 -10.5t-42.5 -29t-28.5 -43.5t-10.5 -53zM35 188q0 40 15.5 76t42.5 62.5t63 42t77 15.5q42 0 78.5 -15.5t63.5 -42 t42.5 -62.5t15.5 -76q0 -41 -15.5 -76.5t-42.5 -62t-63.5 -42t-78.5 -15.5q-41 0 -77 15.5t-63 42t-42.5 62t-15.5 76.5zM235 660q30 -45 60 -90.5t60 -90.5h-46q-19 24 -37.5 48t-36.5 49q-19 -25 -37 -49t-37 -48h-46q30 45 60 90.5t60 90.5z"/>
<glyph glyph-name="otilde" horiz-adv-x="468" unicode="õ" d="M98 187q0 -28 10.5 -52.5t28.5 -42.5t42.5 -28.5t52.5 -10.5t53 10.5t43.5 28.5t29 42.5t10.5 52.5t-10.5 53t-29 43.5t-43.5 29t-53 10.5t-52.5 -10.5t-42.5 -29t-28.5 -43.5t-10.5 -53zM35 188q0 40 15.5 76t42.5 62.5t63 42t77 15.5q42 0 78.5 -15.5t63.5 -42 t42.5 -62.5t15.5 -76q0 -41 -15.5 -76.5t-42.5 -62t-63.5 -42t-78.5 -15.5q-41 0 -77 15.5t-63 42t-42.5 62t-15.5 76.5zM232 486q-15 17 -26.5 22t-25.5 5q-7 0 -16.5 -2t-18 -7.5t-15 -15t-7.5 -24.5l-36 3q1 19 9.5 34.5t21 26t28 16t30.5 5.5q22 0 39.5 -9.5t34.5 -25.5 q15 -17 27 -22t26 -5q7 0 16 2t17.5 7.5t15 15t8.5 24.5q8 -1 17 -1.5t18 -1.5q-1 -20 -9.5 -35t-21 -25.5t-27.5 -15.5t-30 -5q-23 0 -40.5 9.5t-34.5 24.5z"/>
<glyph glyph-name="odieresis" horiz-adv-x="468" unicode="ö" d="M98 187q0 -28 10.5 -52.5t28.5 -42.5t42.5 -28.5t52.5 -10.5t53 10.5t43.5 28.5t29 42.5t10.5 52.5t-10.5 53t-29 43.5t-43.5 29t-53 10.5t-52.5 -10.5t-42.5 -29t-28.5 -43.5t-10.5 -53zM35 188q0 40 15.5 76t42.5 62.5t63 42t77 15.5q42 0 78.5 -15.5t63.5 -42 t42.5 -62.5t15.5 -76q0 -41 -15.5 -76.5t-42.5 -62t-63.5 -42t-78.5 -15.5q-41 0 -77 15.5t-63 42t-42.5 62t-15.5 76.5zM110 514q0 18 13 30.5t29 12.5t29 -12.5t13 -30.5q0 -19 -13 -30.5t-29 -11.5t-29 11.5t-13 30.5zM276 514q0 18 12.5 30.5t29.5 12.5q16 0 29 -12.5 t13 -30.5q0 -19 -13 -30.5t-29 -11.5q-17 0 -29.5 11.5t-12.5 30.5z"/>
<glyph glyph-name="divide" horiz-adv-x="501" unicode="÷" d="M209 113q0 19 12.5 31t29.5 12q16 0 29 -12t13 -31t-13 -30.5t-29 -11.5q-17 0 -29.5 11.5t-12.5 30.5zM209 363q0 19 12.5 31t29.5 12q16 0 29 -12t13 -31t-13 -30.5t-29 -11.5q-17 0 -29.5 11.5t-12.5 30.5zM428 207h-360v61h360v-61z"/>
<glyph glyph-name="oslash" horiz-adv-x="467" unicode="ø" d="M35 188q0 40 15.5 76t42.5 62.5t63 42t77 15.5q58 0 105 -30q8 11 17 21t18 21q8 -8 17 -15.5t17 -15.5l-33 -39q27 -26 42.5 -61.5t15.5 -76.5t-15.5 -76.5t-42 -62t-63 -42t-78.5 -15.5q-64 0 -114 36q-11 -12 -20.5 -24.5t-20.5 -24.5q-8 8 -17.5 14.5t-17.5 14.5 q11 13 21 25t21 24q-24 26 -37 59.5t-13 71.5zM233 53q29 0 54 10.5t43 28.5t28.5 42.5t10.5 53.5q0 27 -9.5 50.5t-26.5 40.5q-44 -51 -87 -102t-87 -103q16 -10 34.5 -15.5t39.5 -5.5zM97 188q0 -24 7.5 -45t20.5 -38q44 51 86 101t86 101q-30 16 -64 16q-29 0 -54 -10.5 t-43 -28.5t-28.5 -43t-10.5 -53z"/>
<glyph glyph-name="ugrave" horiz-adv-x="554" unicode="ù" d="M35 375h132v-247q2 -30 21.5 -51.5t59.5 -23.5q28 0 54 9.5t45.5 27t31.5 41t12 51.5v133h-70v60h132v-322h66v-53h-126l-1 52l2 45q-20 -48 -64.5 -76.5t-99.5 -28.5q-57 0 -90 31t-35 81v211h-70v60zM198 612q23 -33 45 -66.5t45 -66.5h-46q-27 33 -54 66.5t-54 66.5 h64z"/>
<glyph glyph-name="uacute" horiz-adv-x="554" unicode="ú" d="M35 375h132v-247q2 -30 21.5 -51.5t59.5 -23.5q28 0 54 9.5t45.5 27t31.5 41t12 51.5v133h-70v60h132v-322h66v-53h-126l-1 52l2 45q-20 -48 -64.5 -76.5t-99.5 -28.5q-57 0 -90 31t-35 81v211h-70v60zM231 479q23 33 45 66.5t45 66.5h64q-27 -33 -54 -66.5t-54 -66.5 h-46z"/>
<glyph glyph-name="ucircumflex" horiz-adv-x="554" unicode="û" d="M35 375h132v-247q2 -30 21.5 -51.5t59.5 -23.5q28 0 54 9.5t45.5 27t31.5 41t12 51.5v133h-70v60h132v-322h66v-53h-126l-1 52l2 45q-20 -48 -64.5 -76.5t-99.5 -28.5q-57 0 -90 31t-35 81v211h-70v60zM266 660q30 -45 60 -90.5t60 -90.5h-46q-19 24 -37.5 48t-36.5 49 q-19 -25 -37 -49t-37 -48h-46q30 45 60 90.5t60 90.5z"/>
<glyph glyph-name="udieresis" horiz-adv-x="554" unicode="ü" d="M35 375h132v-247q2 -30 21.5 -51.5t59.5 -23.5q28 0 54 9.5t45.5 27t31.5 41t12 51.5v133h-70v60h132v-322h66v-53h-126l-1 52l2 45q-20 -48 -64.5 -76.5t-99.5 -28.5q-57 0 -90 31t-35 81v211h-70v60zM137 514q0 18 13 30.5t29 12.5t29 -12.5t13 -30.5q0 -19 -13 -30.5 t-29 -11.5t-29 11.5t-13 30.5zM303 514q0 18 12.5 30.5t29.5 12.5q16 0 29 -12.5t13 -30.5q0 -19 -13 -30.5t-29 -11.5q-17 0 -29.5 11.5t-12.5 30.5z"/>
<glyph glyph-name="yacute" horiz-adv-x="609" unicode="ý" d="M92 -191h87q23 48 47.5 95.5t47.5 94.5q-40 79 -79.5 158t-79.5 158h-80v60h204v-60h-59q34 -64 67 -129t59 -130q26 64 59 129t67 130h-60v60h202v-60h-77q-64 -127 -127.5 -252.5t-126.5 -253.5h57v-59h-208v59zM298 479q23 33 45 66.5t45 66.5h64q-27 -33 -54 -66.5 t-54 -66.5h-46z"/>
<glyph glyph-name="thorn" horiz-adv-x="506" unicode="þ" d="M427 188q0 28 -10 52.5t-28 42.5t-43 28.5t-55 10.5q-29 0 -54 -10.5t-43 -28.5t-28.5 -42.5t-10.5 -52.5q0 -29 10.5 -53.5t28.5 -43t43 -29t54 -10.5q30 0 55 10.5t43 29t28 43t10 53.5zM16 -191h77v881h-77v60h208v-60h-69v-342q-2 -11 -3.5 -20.5t-3.5 -20.5 q4 11 16.5 24t31.5 24.5t43.5 19t51.5 7.5q42 0 78.5 -15.5t63 -42t42 -62t15.5 -75.5t-15.5 -75.5t-42 -62.5t-63 -42.5t-78.5 -15.5q-29 0 -52.5 7t-42 17.5t-30.5 22.5t-17 23q2 -8 3.5 -15t3.5 -14v-223h82v-59h-222v59z"/>
<glyph glyph-name="ydieresis" horiz-adv-x="609" unicode="ÿ" d="M92 -191h87q23 48 47.5 95.5t47.5 94.5q-40 79 -79.5 158t-79.5 158h-80v60h204v-60h-59q34 -64 67 -129t59 -130q26 64 59 129t67 130h-60v60h202v-60h-77q-64 -127 -127.5 -252.5t-126.5 -253.5h57v-59h-208v59zM183 514q0 18 13 30.5t29 12.5t29 -12.5t13 -30.5 q0 -19 -13 -30.5t-29 -11.5t-29 11.5t-13 30.5zM349 514q0 18 12.5 30.5t29.5 12.5q16 0 29 -12.5t13 -30.5q0 -19 -13 -30.5t-29 -11.5q-17 0 -29.5 11.5t-12.5 30.5z"/>
<glyph glyph-name="endash" horiz-adv-x="509" unicode="–" d="M100 175v61h301v-61h-301z"/>
<glyph glyph-name="emdash" horiz-adv-x="700" unicode="—" d="M99 175v61h502v-61h-502z"/>
<glyph glyph-name="quoteleft" horiz-adv-x="164" unicode="‘" d="M109 590q-8 -5 -15.5 -11t-15.5 -11q-28 27 -37.5 57t-9.5 54q0 16 3 32q10 -2 20.5 -3.5t21.5 -3.5q-3 -15 -3 -29q0 -19 7.5 -42t28.5 -43z"/>
<glyph glyph-name="quoteright" horiz-adv-x="164" unicode="’" d="M73 568q-8 5 -15.5 11t-15.5 11q21 20 28.5 43t7.5 42q0 14 -3 29q11 2 21.5 3.5t20.5 3.5q3 -16 3 -32q0 -24 -9.5 -54t-37.5 -57z"/>
<glyph glyph-name="quotesinglbase" horiz-adv-x="146" unicode="‚" d="M50 -51q-8 5 -15.5 11t-15.5 11q21 20 28.5 43t7.5 42q0 14 -3 29q11 2 21.5 3.5t20.5 3.5q3 -16 3 -32q0 -24 -9.5 -54t-37.5 -57z"/>
<glyph glyph-name="quotedblleft" horiz-adv-x="249" unicode="“" d="M106 590q-8 -5 -15 -11t-15 -11q-29 27 -38.5 57t-9.5 54q0 16 3 32q11 -2 21 -3.5t21 -3.5q-3 -15 -3 -29q0 -19 7.5 -42t28.5 -43zM210 590q-8 -5 -15 -11t-15 -11q-29 27 -38.5 57t-9.5 54q0 16 3 32q11 -2 21 -3.5t21 -3.5q-3 -15 -3 -29q0 -19 7.5 -42t28.5 -43z "/>
<glyph glyph-name="quotedblright" horiz-adv-x="248" unicode="”" d="M155 568q-8 5 -15 11t-15 11q21 20 28.5 43t7.5 42q0 14 -3 29q11 2 21 3.5t21 3.5q3 -16 3 -32q0 -24 -9.5 -54t-38.5 -57zM51 568q-8 5 -15 11t-15 11q21 20 28.5 43t7.5 42q0 14 -3 29q11 2 21 3.5t21 3.5q3 -16 3 -32q0 -24 -9.5 -54t-38.5 -57z"/>
<glyph glyph-name="quotedblbase" horiz-adv-x="309" unicode="„" d="M154 -51q-8 5 -15.5 11t-15.5 11q21 20 28.5 43t7.5 42q0 14 -3 29q11 2 21.5 3.5t20.5 3.5q3 -16 3 -32q0 -24 -9.5 -54t-37.5 -57zM50 -51q-8 5 -15.5 11t-15.5 11q21 20 28.5 43t7.5 42q0 14 -3 29q11 2 21.5 3.5t20.5 3.5q3 -16 3 -32q0 -24 -9.5 -54t-37.5 -57z"/>
<glyph glyph-name="bullet" horiz-adv-x="479" unicode="•" d="M131 300q0 23 8.5 43t23 34.5t34 23t42.5 8.5t43 -8.5t34.5 -23t23 -34.5t8.5 -43t-8.5 -42.5t-23 -34t-34.5 -23t-43 -8.5t-42.5 8.5t-34 23t-23 34t-8.5 42.5z"/>
<glyph glyph-name="guilsinglleft" horiz-adv-x="392" unicode="‹" d="M288 77l-171 162q43 41 85.5 80.5t85.5 80.5v-72q-23 -22 -44.5 -44t-43.5 -45q22 -23 43.5 -45.5t44.5 -45.5v-71z"/>
<glyph glyph-name="guilsinglright" horiz-adv-x="392" unicode="›" d="M117 77v71q23 24 45 46q21 22 43 45q-22 23 -43 45t-45 44v72l86 -80q42 -40 85 -81z"/>
</font>
</defs>
</svg>
